<svg width="139" height="43" viewBox="0 0 139 43" fill="none" xmlns="http://www.w3.org/2000/svg">
<rect x="0.75" y="0.75" width="137.5" height="41.5" rx="20.75" stroke="white" stroke-width="1.5"/>
<path d="M28.9285 29H31.3705L24.4967 10.3555H22.1968L15.323 29H17.765L19.6385 23.6638H27.055L28.9285 29ZM23.308 13.1851H23.3855L26.3702 21.6869H20.3233L23.308 13.1851ZM39.8335 29.2326C43.2704 29.2326 45.5445 26.5063 45.5445 22.2813C45.5445 18.0691 43.2575 15.3299 39.8723 15.3299C37.973 15.3299 36.4096 16.2731 35.5697 17.8107H35.518V10.3555H33.2698V29H35.4147V26.726H35.4663C36.332 28.2764 37.8696 29.2326 39.8335 29.2326ZM39.3942 17.3068C41.7716 17.3068 43.2446 19.232 43.2446 22.2813C43.2446 25.3564 41.7716 27.2557 39.3942 27.2557C37.1202 27.2557 35.5051 25.2788 35.5051 22.2813C35.5051 19.2966 37.1202 17.3068 39.3942 17.3068ZM53.4002 29.2326C57.1085 29.2326 59.6151 26.558 59.6151 22.2813C59.6151 17.9916 57.1085 15.3299 53.4002 15.3299C49.6791 15.3299 47.1725 17.9916 47.1725 22.2813C47.1725 26.558 49.6791 29.2326 53.4002 29.2326ZM53.4002 27.2557C51.0228 27.2557 49.4594 25.4468 49.4594 22.2813C49.4594 19.1157 51.0228 17.3068 53.4002 17.3068C55.7776 17.3068 57.3281 19.1157 57.3281 22.2813C57.3281 25.4468 55.7776 27.2557 53.4002 27.2557ZM72.9234 15.5625H70.6752V23.457C70.6752 25.744 69.3573 27.2428 67.1737 27.2428C65.0934 27.2428 64.0727 26.067 64.0727 23.8834V15.5625H61.8245V24.284C61.8245 27.3332 63.543 29.2326 66.476 29.2326C68.5433 29.2326 69.9387 28.3669 70.7398 26.8164H70.7915V29H72.9234V15.5625ZM76.567 12.3194V15.5625H74.5643V17.4102H76.567V25.5114C76.567 28.0956 77.5231 29.1034 79.991 29.1034C80.5207 29.1034 81.1409 29.0646 81.4123 29V27.1136C81.2572 27.1394 80.7404 27.1782 80.482 27.1782C79.332 27.1782 78.8152 26.6226 78.8152 25.3951V17.4102H81.4252V15.5625H78.8152V12.3194H76.567ZM89.2551 29H91.5033V20.5757C91.5033 18.7151 92.7954 17.3197 94.5784 17.3197C96.2452 17.3197 97.3305 18.3792 97.3305 19.9943V29H99.5787V20.4594C99.5787 18.6376 100.832 17.3197 102.615 17.3197C104.385 17.3197 105.406 18.405 105.406 20.2398V29H107.654V19.723C107.654 17.0613 105.936 15.3299 103.274 15.3299C101.388 15.3299 99.8113 16.2861 99.0619 17.8882H99.0102C98.4288 16.2602 97.0721 15.3299 95.2374 15.3299C93.4285 15.3299 92.0589 16.2861 91.4258 17.7073H91.3741V15.5625H89.2551V29ZM119.438 25.1496C119.063 26.4159 117.81 27.2816 116.104 27.2816C113.688 27.2816 112.176 25.5889 112.176 23.0177V22.8885H121.815V22.0358C121.815 17.9657 119.58 15.3299 115.949 15.3299C112.241 15.3299 109.864 18.1596 109.864 22.3329C109.864 26.558 112.202 29.2326 116.053 29.2326C118.986 29.2326 121.26 27.5012 121.647 25.1496H119.438ZM115.91 17.2809C118.029 17.2809 119.438 18.8831 119.489 21.1313H112.189C112.331 18.896 113.804 17.2809 115.91 17.2809Z" fill="white"/>
</svg>
