<svg width="157" height="43" viewBox="0 0 157 43" fill="none" xmlns="http://www.w3.org/2000/svg">
<rect x="1.37821" y="1.37821" width="154.244" height="40.2436" rx="20.1218" stroke="white" stroke-width="2.75641"/>
<path d="M31.8251 29H35.3395L28.7242 10.3555H24.9642L18.3489 29H21.7858L23.375 24.1806H30.2359L31.8251 29ZM26.7602 13.6502H26.8507L29.4477 21.6094H24.1502L26.7602 13.6502ZM45.872 29.2197C49.3347 29.2197 51.5183 26.5322 51.5183 22.152C51.5183 17.7719 49.3218 15.0715 45.872 15.0715C43.9339 15.0715 42.3705 16.0535 41.5952 17.6556H41.5177V10.3555H38.3004V29H41.4531V26.6614H41.5177C42.3188 28.2506 43.8563 29.2197 45.872 29.2197ZM44.8771 17.7203C46.9315 17.7203 48.2235 19.4387 48.2235 22.152C48.2235 24.8783 46.9444 26.5838 44.8771 26.5838C42.8873 26.5838 41.5048 24.8395 41.5048 22.152C41.5048 19.4904 42.8873 17.7203 44.8771 17.7203ZM60.862 29.2713C64.8803 29.2713 67.4903 26.5968 67.4903 22.152C67.4903 17.7203 64.8545 15.0198 60.862 15.0198C56.8695 15.0198 54.2337 17.7332 54.2337 22.152C54.2337 26.5968 56.8437 29.2713 60.862 29.2713ZM60.862 26.726C58.8205 26.726 57.5026 25.0721 57.5026 22.152C57.5026 19.2449 58.8335 17.5781 60.862 17.5781C62.9035 17.5781 64.2214 19.2449 64.2214 22.152C64.2214 25.0721 62.9035 26.726 60.862 26.726ZM82.8938 15.3041H79.6766V23.2245C79.6766 25.2142 78.5266 26.5322 76.6661 26.5322C74.8572 26.5322 73.901 25.4727 73.901 23.5087V15.3041H70.6838V24.1547C70.6838 27.3203 72.5702 29.2455 75.542 29.2455C77.6222 29.2455 79.0047 28.2894 79.7283 26.6226H79.7929V29H82.8938V15.3041ZM87.6119 12.0998V15.3041H85.648V17.7849H87.6119V25.3564C87.6119 28.018 88.7748 29.0646 91.7336 29.0646C92.4184 29.0646 93.0515 29.0129 93.4004 28.9354V26.4805C93.1937 26.5192 92.7802 26.5451 92.483 26.5451C91.346 26.5451 90.8292 26.0282 90.8292 24.9041V17.7849H93.4133V15.3041H90.8292V12.0998H87.6119ZM103.289 29H106.506V20.6145C106.506 18.9606 107.591 17.759 109.142 17.759C110.641 17.759 111.571 18.7022 111.571 20.2269V29H114.698V20.537C114.698 18.896 115.757 17.759 117.308 17.759C118.884 17.759 119.763 18.7151 119.763 20.3948V29H122.98V19.6067C122.98 16.8675 121.21 15.0457 118.509 15.0457C116.533 15.0457 114.905 16.1052 114.246 17.7978H114.168C113.664 16.0406 112.282 15.0457 110.344 15.0457C108.483 15.0457 107.036 16.0922 106.441 17.6815H106.377V15.3041H103.289V29ZM135.825 24.9041C135.476 26.0412 134.339 26.7906 132.84 26.7906C130.734 26.7906 129.391 25.3176 129.391 23.1211V22.9273H138.965V21.8807C138.965 17.7203 136.536 15.0198 132.647 15.0198C128.693 15.0198 126.186 17.8753 126.186 22.2037C126.186 26.5709 128.667 29.2713 132.776 29.2713C136.019 29.2713 138.422 27.4883 138.836 24.9041H135.825ZM132.66 17.5135C134.507 17.5135 135.748 18.8702 135.812 20.8083H129.417C129.546 18.896 130.851 17.5135 132.66 17.5135Z" fill="white"/>
</svg>
