<svg width="1356" height="219" viewBox="0 0 1356 219" fill="none" xmlns="http://www.w3.org/2000/svg">
<path d="M192.613 126.816C192.613 155.527 184.459 177.988 168.15 194.199C151.939 210.41 129.381 218.516 100.475 218.516C69.6152 218.516 45.2012 208.701 27.2324 189.072C9.36133 169.346 0.425781 142.49 0.425781 108.506C0.425781 75.0098 9.3125 48.5938 27.0859 29.2578C44.957 9.82422 69.1758 0.107422 99.7422 0.107422C123.766 0.107422 144.127 6.60156 160.826 19.5898C177.525 32.5781 187.584 49.668 191.002 70.8594H152.623C149.01 58.75 142.564 49.2773 133.287 42.4414C124.01 35.6055 112.877 32.1875 99.8887 32.1875C80.8457 32.1875 65.9531 38.877 55.2109 52.2559C44.4688 65.6348 39.0977 84.2383 39.0977 108.066C39.0977 132.383 44.6152 151.523 55.6504 165.488C66.7832 179.453 81.8711 186.436 100.914 186.436C116.832 186.436 129.82 181.846 139.879 172.666C150.035 163.486 155.26 151.475 155.553 136.631L155.699 133.115H104.723V104.258H192.613V126.816ZM274.814 3.62305V137.07C274.814 151.719 279.111 163.486 287.705 172.373C296.396 181.162 308.457 185.557 323.887 185.557C339.316 185.557 351.377 181.162 360.068 172.373C368.76 163.486 373.105 151.719 373.105 137.07V3.62305H410.752V140.439C410.752 163.779 402.891 182.627 387.168 196.982C371.543 211.338 350.449 218.516 323.887 218.516C297.422 218.516 276.328 211.338 260.605 196.982C244.883 182.627 237.021 163.779 237.021 140.439V3.62305H274.814ZM550.375 215H461.752V3.62305H549.496C568.734 3.62305 584.066 8.4082 595.492 17.9785C606.918 27.5488 612.631 40.3418 612.631 56.3574C612.631 67.6855 608.92 77.7441 601.498 86.5332C594.076 95.3223 584.945 100.596 574.105 102.354V103.525C588.559 104.893 600.277 110.312 609.262 119.785C618.344 129.258 622.885 140.977 622.885 154.941C622.885 173.594 616.439 188.291 603.549 199.033C590.658 209.678 572.934 215 550.375 215ZM499.545 33.0664V92.6855H534.115C547.299 92.6855 557.455 90.0488 564.584 84.7754C571.713 79.4043 575.277 71.7871 575.277 61.9238C575.277 52.7441 572.201 45.6641 566.049 40.6836C559.994 35.6055 551.303 33.0664 539.975 33.0664H499.545ZM499.545 185.557H541.732C555.6 185.557 566.146 182.725 573.373 177.061C580.697 171.396 584.359 163.145 584.359 152.305C584.359 141.562 580.6 133.408 573.08 127.842C565.658 122.275 554.672 119.492 540.121 119.492H499.545V185.557ZM701.131 215H663.338V3.62305H701.131V215ZM845.002 0.107422C875.764 0.107422 900.129 9.92188 918.098 29.5508C936.164 49.1797 945.197 75.791 945.197 109.385C945.197 142.979 936.164 169.59 918.098 189.219C900.129 208.75 875.764 218.516 845.002 218.516C814.143 218.516 789.68 208.75 771.613 189.219C753.645 169.59 744.66 142.979 744.66 109.385C744.66 75.791 753.645 49.1797 771.613 29.5508C789.68 9.92188 814.143 0.107422 845.002 0.107422ZM889.973 53.2812C878.84 39.3164 863.85 32.334 845.002 32.334C826.154 32.334 811.164 39.2676 800.031 53.1348C788.898 67.002 783.332 85.752 783.332 109.385C783.332 132.92 788.898 151.621 800.031 165.488C811.164 179.355 826.154 186.289 845.002 186.289C863.85 186.289 878.84 179.355 889.973 165.488C901.105 151.621 906.672 132.92 906.672 109.385C906.672 85.8496 901.105 67.1484 889.973 53.2812ZM1122.61 183.066V215H988.873V3.62305H1026.67V183.066H1122.61ZM1255.09 0.107422C1285.85 0.107422 1310.21 9.92188 1328.18 29.5508C1346.25 49.1797 1355.28 75.791 1355.28 109.385C1355.28 142.979 1346.25 169.59 1328.18 189.219C1310.21 208.75 1285.85 218.516 1255.09 218.516C1224.23 218.516 1199.77 208.75 1181.7 189.219C1163.73 169.59 1154.75 142.979 1154.75 109.385C1154.75 75.791 1163.73 49.1797 1181.7 29.5508C1199.77 9.92188 1224.23 0.107422 1255.09 0.107422ZM1300.06 53.2812C1288.93 39.3164 1273.94 32.334 1255.09 32.334C1236.24 32.334 1221.25 39.2676 1210.12 53.1348C1198.98 67.002 1193.42 85.752 1193.42 109.385C1193.42 132.92 1198.98 151.621 1210.12 165.488C1221.25 179.355 1236.24 186.289 1255.09 186.289C1273.94 186.289 1288.93 179.355 1300.06 165.488C1311.19 151.621 1316.76 132.92 1316.76 109.385C1316.76 85.8496 1311.19 67.1484 1300.06 53.2812Z" fill="black"/>
</svg>
