<svg width="1404" height="358" viewBox="0 0 1404 358" fill="none" xmlns="http://www.w3.org/2000/svg">
<path d="M221.613 197.816C221.613 226.527 213.459 248.988 197.15 265.199C180.939 281.41 158.381 289.516 129.475 289.516C98.6152 289.516 74.2012 279.701 56.2324 260.072C38.3613 240.346 29.4258 213.49 29.4258 179.506C29.4258 146.01 38.3125 119.594 56.0859 100.258C73.957 80.8242 98.1758 71.1074 128.742 71.1074C152.766 71.1074 173.127 77.6016 189.826 90.5898C206.525 103.578 216.584 120.668 220.002 141.859H181.623C178.01 129.75 171.564 120.277 162.287 113.441C153.01 106.605 141.877 103.188 128.889 103.188C109.846 103.188 94.9531 109.877 84.2109 123.256C73.4688 136.635 68.0977 155.238 68.0977 179.066C68.0977 203.383 73.6152 222.523 84.6504 236.488C95.7832 250.453 110.871 257.436 129.914 257.436C145.832 257.436 158.82 252.846 168.879 243.666C179.035 234.486 184.26 222.475 184.553 207.631L184.699 204.115H133.723V175.258H221.613V197.816ZM303.814 74.623V208.07C303.814 222.719 308.111 234.486 316.705 243.373C325.396 252.162 337.457 256.557 352.887 256.557C368.316 256.557 380.377 252.162 389.068 243.373C397.76 234.486 402.105 222.719 402.105 208.07V74.623H439.752V211.439C439.752 234.779 431.891 253.627 416.168 267.982C400.543 282.338 379.449 289.516 352.887 289.516C326.422 289.516 305.328 282.338 289.605 267.982C273.883 253.627 266.021 234.779 266.021 211.439V74.623H303.814ZM579.375 286H490.752V74.623H578.496C597.734 74.623 613.066 79.4082 624.492 88.9785C635.918 98.5488 641.631 111.342 641.631 127.357C641.631 138.686 637.92 148.744 630.498 157.533C623.076 166.322 613.945 171.596 603.105 173.354V174.525C617.559 175.893 629.277 181.312 638.262 190.785C647.344 200.258 651.885 211.977 651.885 225.941C651.885 244.594 645.439 259.291 632.549 270.033C619.658 280.678 601.934 286 579.375 286ZM528.545 104.066V163.686H563.115C576.299 163.686 586.455 161.049 593.584 155.775C600.713 150.404 604.277 142.787 604.277 132.924C604.277 123.744 601.201 116.664 595.049 111.684C588.994 106.605 580.303 104.066 568.975 104.066H528.545ZM528.545 256.557H570.732C584.6 256.557 595.146 253.725 602.373 248.061C609.697 242.396 613.359 234.145 613.359 223.305C613.359 212.562 609.6 204.408 602.08 198.842C594.658 193.275 583.672 190.492 569.121 190.492H528.545V256.557ZM730.131 286H692.338V74.623H730.131V286ZM874.002 71.1074C904.764 71.1074 929.129 80.9219 947.098 100.551C965.164 120.18 974.197 146.791 974.197 180.385C974.197 213.979 965.164 240.59 947.098 260.219C929.129 279.75 904.764 289.516 874.002 289.516C843.143 289.516 818.68 279.75 800.613 260.219C782.645 240.59 773.66 213.979 773.66 180.385C773.66 146.791 782.645 120.18 800.613 100.551C818.68 80.9219 843.143 71.1074 874.002 71.1074ZM918.973 124.281C907.84 110.316 892.85 103.334 874.002 103.334C855.154 103.334 840.164 110.268 829.031 124.135C817.898 138.002 812.332 156.752 812.332 180.385C812.332 203.92 817.898 222.621 829.031 236.488C840.164 250.355 855.154 257.289 874.002 257.289C892.85 257.289 907.84 250.355 918.973 236.488C930.105 222.621 935.672 203.92 935.672 180.385C935.672 156.85 930.105 138.148 918.973 124.281ZM1151.61 254.066V286H1017.87V74.623H1055.67V254.066H1151.61ZM1284.09 71.1074C1314.85 71.1074 1339.21 80.9219 1357.18 100.551C1375.25 120.18 1384.28 146.791 1384.28 180.385C1384.28 213.979 1375.25 240.59 1357.18 260.219C1339.21 279.75 1314.85 289.516 1284.09 289.516C1253.23 289.516 1228.77 279.75 1210.7 260.219C1192.73 240.59 1183.75 213.979 1183.75 180.385C1183.75 146.791 1192.73 120.18 1210.7 100.551C1228.77 80.9219 1253.23 71.1074 1284.09 71.1074ZM1329.06 124.281C1317.93 110.316 1302.94 103.334 1284.09 103.334C1265.24 103.334 1250.25 110.268 1239.12 124.135C1227.98 138.002 1222.42 156.752 1222.42 180.385C1222.42 203.92 1227.98 222.621 1239.12 236.488C1250.25 250.355 1265.24 257.289 1284.09 257.289C1302.94 257.289 1317.93 250.355 1329.06 236.488C1340.19 222.621 1345.76 203.92 1345.76 180.385C1345.76 156.85 1340.19 138.148 1329.06 124.281Z" fill="white"/>
<path d="M18.3615 56C7.53743 56 0 63.4754 0 74.5C0 86.1457 7.77845 93 18.734 93C21.2538 93 23.6421 92.6673 25.4169 92.0905V88.8076C24.1242 89.3399 21.5167 89.6948 18.9531 89.6948C10.0134 89.6948 3.68107 84.2158 3.68107 74.6331C3.68107 65.5827 9.68472 59.2608 18.1643 59.2608C26.622 59.2608 32.3189 64.5623 32.3189 72.6145C32.3189 77.7164 30.6756 80.6667 28.353 80.6667C26.8631 80.6667 26.1181 79.6685 26.1181 78.1823V65.8933H22.1083V68.5552H21.8454C20.9909 66.6253 18.9531 65.4275 16.6086 65.4275C12.1826 65.4275 9.13694 69.1319 9.13694 74.5222C9.13694 80.1565 12.1826 83.9275 16.7401 83.9275C19.3037 83.9275 21.21 82.7074 22.1302 80.467H22.3932C22.7876 82.6409 24.8911 84.0384 27.5204 84.0384C32.801 84.0384 36 79.4688 36 72.437C36 62.5881 28.6817 56 18.3615 56ZM17.6385 69.1097C20.2021 69.1097 21.8235 71.2392 21.8235 74.6553C21.8235 78.0492 20.1802 80.1787 17.5946 80.1787C15.0968 80.1787 13.5849 78.0935 13.5849 74.6553C13.5849 71.1727 15.0749 69.1097 17.6385 69.1097Z" fill="white"/>
</svg>
