<svg width="96" height="43" viewBox="0 0 96 43" fill="none" xmlns="http://www.w3.org/2000/svg">
<rect x="0.75" y="0.75" width="94.5" height="41.5" rx="20.75" stroke="white" stroke-width="1.5"/>
<path d="M31.2677 29.4102V10.7656H28.942V18.8281H18.7088V10.7656H16.3831V29.4102H18.7088V20.9213H28.942V29.4102H31.2677ZM40.1055 29.6427C43.8137 29.6427 46.3203 26.9681 46.3203 22.6914C46.3203 18.4017 43.8137 15.7401 40.1055 15.7401C36.3843 15.7401 33.8777 18.4017 33.8777 22.6914C33.8777 26.9681 36.3843 29.6427 40.1055 29.6427ZM40.1055 27.6659C37.7281 27.6659 36.1647 25.857 36.1647 22.6914C36.1647 19.5258 37.7281 17.7169 40.1055 17.7169C42.4829 17.7169 44.0334 19.5258 44.0334 22.6914C44.0334 25.857 42.4829 27.6659 40.1055 27.6659ZM48.5944 29.4102H50.8425V20.9859C50.8425 19.1253 52.1346 17.7299 53.9177 17.7299C55.5844 17.7299 56.6698 18.7894 56.6698 20.4044V29.4102H58.918V20.8696C58.918 19.0478 60.1713 17.7299 61.9543 17.7299C63.7245 17.7299 64.7452 18.8152 64.7452 20.6499V29.4102H66.9934V20.1331C66.9934 17.4715 65.2749 15.7401 62.6133 15.7401C60.7269 15.7401 59.1505 16.6962 58.4011 18.2984H58.3495C57.768 16.6704 56.4114 15.7401 54.5766 15.7401C52.7677 15.7401 51.3981 16.6962 50.765 18.1175H50.7133V15.9727H48.5944V29.4102ZM78.777 25.5598C78.4023 26.826 77.149 27.6917 75.4435 27.6917C73.0273 27.6917 71.5156 25.9991 71.5156 23.4279V23.2987H81.1544V22.4459C81.1544 18.3759 78.9192 15.7401 75.2885 15.7401C71.5802 15.7401 69.2028 18.5697 69.2028 22.7431C69.2028 26.9681 71.5415 29.6427 75.3918 29.6427C78.3248 29.6427 80.5989 27.9114 80.9865 25.5598H78.777ZM75.2497 17.6911C77.3687 17.6911 78.777 19.2933 78.8287 21.5415H71.5285C71.6707 19.3062 73.1436 17.6911 75.2497 17.6911Z" fill="white"/>
</svg>
