<svg width="111" height="43" viewBox="0 0 111 43" fill="none" xmlns="http://www.w3.org/2000/svg">
<rect x="1.37821" y="1.37821" width="108.244" height="40.2436" rx="20.1218" stroke="white" stroke-width="2.75641"/>
<path d="M35.3654 29V10.3555H32.0448V18.1079H22.9745V10.3555H19.6409V29H22.9745V20.9117H32.0448V29H35.3654ZM45.5877 29.2713C49.606 29.2713 52.216 26.5968 52.216 22.152C52.216 17.7203 49.5802 15.0198 45.5877 15.0198C41.5952 15.0198 38.9594 17.7332 38.9594 22.152C38.9594 26.5968 41.5694 29.2713 45.5877 29.2713ZM45.5877 26.726C43.5462 26.726 42.2283 25.0721 42.2283 22.152C42.2283 19.2449 43.5592 17.5781 45.5877 17.5781C47.6292 17.5781 48.9471 19.2449 48.9471 22.152C48.9471 25.0721 47.6292 26.726 45.5877 26.726ZM55.4741 29H58.6913V20.6145C58.6913 18.9606 59.7767 17.759 61.3272 17.759C62.8259 17.759 63.7562 18.7022 63.7562 20.2269V29H66.883V20.537C66.883 18.896 67.9425 17.759 69.493 17.759C71.0693 17.759 71.9479 18.7151 71.9479 20.3948V29H75.1652V19.6067C75.1652 16.8675 73.3951 15.0457 70.6946 15.0457C68.7178 15.0457 67.0898 16.1052 66.4308 17.7978H66.3533C65.8494 16.0406 64.4669 15.0457 62.5288 15.0457C60.6682 15.0457 59.2211 16.0922 58.6267 17.6815H58.5621V15.3041H55.4741V29ZM88.0104 24.9041C87.6615 26.0412 86.5245 26.7906 85.0257 26.7906C82.9197 26.7906 81.5759 25.3176 81.5759 23.1211V22.9273H91.1501V21.8807C91.1501 17.7203 88.721 15.0198 84.8319 15.0198C80.8782 15.0198 78.3716 17.8753 78.3716 22.2037C78.3716 26.5709 80.8524 29.2713 84.9611 29.2713C88.2042 29.2713 90.6075 27.4883 91.0209 24.9041H88.0104ZM84.8448 17.5135C86.6925 17.5135 87.9329 18.8702 87.9975 20.8083H81.6018C81.731 18.896 83.0359 17.5135 84.8448 17.5135Z" fill="white"/>
</svg>
