<?xml version="1.0" encoding="UTF-8"?>
<svg id="Livello_2" data-name="Livello 2" xmlns="http://www.w3.org/2000/svg" viewBox="0 0 1734.99 1788.9">
  <defs>
    <style>
      .cls-1 {
        fill: #fff;
      }
    </style>
  </defs>
  <g id="Livello_2-2" data-name="Livello 2">
    <g>
      <path class="cls-1" d="M695.17,940.39c-11.62,0-19.49-2.16-23.73-3.32-.57-.16-1.03-.29-1.39-.37-23.26-3.33-40.57-15.08-50.07-34-10.88-21.65-9.6-48.53-6.61-67.25,3.7-23.19,11.15-42.67,16.41-52.3,2.32-4.25,6.24-10.99,11.21-19.52,26.37-45.29,88.12-151.37,107.39-226.94,22.39-87.81,.48-152.1,.26-152.74-1.82-5.21,.91-10.91,6.11-12.75,5.2-1.83,10.9,.89,12.75,6.08,1,2.83,24.25,70.31,.26,164.35-19.96,78.29-82.7,186.05-109.49,232.07-4.89,8.39-8.75,15.02-10.93,19.03-9.23,16.91-25.06,70-9.48,101,6.63,13.2,18.13,20.79,35.15,23.19,1.18,.17,2.3,.48,3.73,.87,6.55,1.8,23.97,6.58,54.5-4.55,40.68-14.83,87.63-51.15,139.54-107.94,8.36-9.14,16.95-18.95,25.55-29.15,104.18-123.64,141.27-244.57,154.04-324.25,13.85-86.43,2.89-144.39,2.78-144.97-1.06-5.42,2.47-10.67,7.89-11.73,5.42-1.06,10.67,2.46,11.74,7.87,.49,2.46,11.72,61.31-2.5,151-8.32,52.49-23.71,104.7-45.75,155.19-27.5,63.02-65.49,123.5-112.9,179.77-8.77,10.4-17.54,20.42-26.08,29.76-54.11,59.2-103.72,97.29-147.45,113.24-17.71,6.45-31.98,8.37-42.91,8.37Z"/>
      <path class="cls-1" d="M1214.38,940.31c-22.17,0-44.05-7.07-64.94-15.36-23.29-9.25-35.84-30.17-38.37-63.96-2.12-28.26,2.43-62.8,7.69-102.79,4.77-36.23,10.17-77.29,10.61-117.83,.69-63.31-19.3-117.2-36.19-151.25-18.43-37.15-37.29-59.5-37.48-59.72-3.58-4.2-3.08-10.51,1.12-14.09,4.2-3.58,10.5-3.08,14.09,1.11,.82,.96,20.38,24.05,39.9,63.23,18,36.14,39.3,93.39,38.56,160.94-.45,41.74-5.94,83.44-10.78,120.22-9.66,73.43-17.3,131.44,18.23,145.54,32.38,12.86,59.27,19.25,85.23,8.67,30.84-12.57,59.06-49.02,86.27-111.43,30.06-68.94,45.89-168.02,41.31-258.58-4.97-98.28-32.89-173.22-76.62-205.6-4.44-3.29-5.37-9.55-2.08-13.99,3.29-4.44,9.55-5.37,13.99-2.08,25.9,19.18,46.47,49.77,61.14,90.92,12.95,36.33,21.09,81.2,23.55,129.74,4.72,93.45-11.74,195.98-42.95,267.58-29.81,68.37-60.65,107.12-97.05,121.96-11.75,4.79-23.53,6.76-35.22,6.76Z"/>
      <path class="cls-1" d="M529.35,898.29c-20.11,0-40.02-5.17-56.06-19.84-53.26-48.7-62.02-107.02-22.86-152.21,16.36-18.87,42.25-36.1,67.3-52.76,29.95-19.92,60.92-40.52,66.84-59.01,4.01-12.53,3.72-28.03,3.4-44.44-.61-31.49-1.29-67.19,24.8-103.12,3.41-4.69,9.97-5.73,14.67-2.33,4.69,3.41,5.73,9.97,2.33,14.67-21.95,30.23-21.37,60.81-20.8,90.38,.35,18.2,.68,35.39-4.4,51.25-8.17,25.49-40.73,47.15-75.21,70.08-23.88,15.88-48.57,32.3-63.06,49.02-31.37,36.19-23.46,82.16,21.16,122.95,41.82,38.23,127.59-11.78,128.45-12.29,4.99-2.95,11.43-1.3,14.38,3.68,2.95,4.99,1.31,11.42-3.67,14.38-2.84,1.68-50.58,29.57-97.27,29.57Z"/>
      <path class="cls-1" d="M395.08,718.48c-17.81,0-35.49-5.11-51.38-15.05-27.83-17.41-47.35-47.87-53.56-83.56-4.89-28.09-3.95-72.98,28.31-127.31,49.76-83.79,131.71-173.9,219.21-241.04,47.95-36.8,95.97-65.81,142.71-86.23,51.74-22.6,100.74-34.06,145.63-34.06,6.35,0,11.5,5.15,11.5,11.5s-5.15,11.5-11.5,11.5c-79.81,0-177.24,41.03-274.33,115.54-85.3,65.46-165.09,153.14-213.44,234.54-28.67,48.28-29.66,87.35-25.43,111.62,5.1,29.27,20.81,54.06,43.1,68.01,29.53,18.48,77.15,20.11,114.17-36.11,83.55-126.9,183.24-230.14,184.23-231.16,4.42-4.56,11.7-4.67,16.26-.25s4.67,11.7,.25,16.26c-.98,1.01-99.21,102.77-181.53,227.8-19.19,29.15-43.83,48.22-71.25,55.14-7.59,1.92-15.29,2.86-22.96,2.86Z"/>
      <path class="cls-1" d="M1464.79,621.68c-4.53,0-8.63-3.1-9.72-7.69-1.45-6.12-3.02-9.36-5.19-13.84-.98-2.03-2.09-4.33-3.27-7.08-6.11-14.26-10.96-27.2-15.23-38.63-15.05-40.2-24.13-64.47-65.13-87.77-4.8-2.73-6.48-8.83-3.75-13.63,2.73-4.8,8.84-6.48,13.63-3.75,47.31,26.88,58.5,56.77,73.98,98.15,4.2,11.22,8.96,23.93,14.88,37.76,1,2.33,1.96,4.33,2.9,6.26,2.41,4.98,4.68,9.69,6.64,17.93,1.28,5.37-2.05,10.76-7.42,12.04-.78,.18-1.55,.27-2.32,.27Z"/>
      <path class="cls-1" d="M1177.62,1432.93c-89.46,0-295.7-54.89-405.94-97.04-29.87-11.42-56.91-29.82-80.39-54.7-18.61-19.72-35.01-43.52-48.74-70.75-16.21-32.13-24.79-61.15-28.61-76.37-33.64,9.13-62.19-2-66.12-3.65-81.32-28.72-127.74-68.55-137.98-118.4-15.32-74.58,56.53-141.75,59.6-144.58,4.06-3.74,10.39-3.48,14.13,.58,3.74,4.06,3.48,10.38-.58,14.12h0c-.67,.62-66.64,62.45-53.54,125.92,8.78,42.53,50.94,77.38,125.33,103.6l.72,.28c.27,.11,30.03,12.7,62.04-.13l11.33-4.54,2.23,12c.07,.38,7.45,38.99,29.56,82.65,20.09,39.66,56.9,91.86,118.17,115.28,128.18,49.01,349.36,103.47,415.2,94.82,68.07-8.96,157.05-62.68,192.53-96.39,.97-.92,1.99-1.88,3.06-2.89,38.98-36.84,142.52-134.71,107.71-334.85-16.41-94.33-22.97-168.86-27.83-231.31-.43-5.51,3.69-10.32,9.19-10.75,5.51-.43,10.32,3.69,10.75,9.19,4.83,62,11.34,135.96,27.6,229.44,15.65,89.97,6.23,171.08-28,241.06-28,57.24-65.52,92.7-85.67,111.75-1.06,1-2.06,1.95-3.02,2.86-37.41,35.54-131.48,92.22-203.7,101.72-5.53,.73-11.9,1.07-19.01,1.07Z"/>
      <path class="cls-1" d="M513.45,1301.33c-25.44,0-52.35-4.46-80.3-13.33-53.14-16.86-85.23-42.66-95.37-76.69-8.44-28.33,.53-55.54,9.67-73.54-20.09,1.07-50.33,1.42-82.09-2.8-75.17-10-121.86-41.21-135.03-90.26-11.11-41.39-11.64-68.72-1.71-88.6,9.6-19.23,27.62-28.68,46.71-38.68,11.76-6.17,23.93-12.54,36.44-21.92,51.19-38.39,113.16-94.86,138.16-191.51,1.66-6.42,8.21-10.27,14.62-8.61,6.42,1.66,10.27,8.21,8.61,14.62-11.79,45.57-32.77,87.52-62.36,124.68-22.32,28.03-49.21,53.45-84.64,80.02-14.06,10.54-27.68,17.68-39.7,23.98-17.55,9.2-30.23,15.85-36.37,28.14-7.02,14.06-5.93,36.83,3.42,71.66,25.88,96.38,213.39,73.71,215.28,73.46l29.8-3.79-18.99,23.28c-.28,.35-29.59,37.19-18.78,73.14,7.78,25.89,34.56,46.26,79.59,60.55,59.1,18.75,110.78,16.05,153.59-8.02,32.02-18,47.04-41.96,47.19-42.2,3.47-5.63,10.85-7.41,16.49-3.95s7.44,10.79,4,16.45c-.71,1.17-17.75,28.78-54.7,49.94-21.59,12.36-45.59,20.04-71.35,22.82-7.26,.78-14.66,1.17-22.19,1.17Z"/>
      <path class="cls-1" d="M227.4,867.39c-26.44,0-61.13-6.6-100.11-30.48-65.33-40.03-104.89-95.63-98.46-138.36,2.17-14.42,12.04-40.19,53.71-50.86,15.55-3.98,35.37-12.78,58.92-26.15,79.01-44.87,173.27-126.19,174.21-127.01,5.01-4.34,12.59-3.79,16.93,1.22s3.79,12.59-1.22,16.93c-3.92,3.4-97.01,83.7-178.07,129.73-25.4,14.43-47.21,24.03-64.82,28.53-21.55,5.52-33.64,16.01-35.92,31.18-4.87,32.28,31.83,80.36,87.26,114.32,35.29,21.62,70.38,30.32,104.31,25.88,25.33-3.32,40.61-13.15,40.77-13.25,5.51-3.68,12.94-2.18,16.62,3.33,3.68,5.51,2.17,12.98-3.34,16.66-.77,.51-19.1,12.57-49.44,16.85-6.31,.89-13.46,1.48-21.34,1.48Z"/>
      <path class="cls-1" d="M139.64,640.11c-.98,0-1.97-.12-2.96-.37-3.94-1-96.94-25.16-127.18-83.2-11.54-22.15-12.58-46.09-3.08-71.18,22.89-60.47,103.82-84.37,175.17-94.74-50.26-15.92-82.5-44.6-93.85-83.87-10.89-37.69-9.96-68.04,2.76-90.19,15.29-26.63,42.96-33.61,54.78-36.59,1.36-.34,2.54-.64,3.28-.86,2.59-.78,8.92-2.16,22.99-5.2,62.43-13.5,228.26-49.34,307.33-91.14,68.26-36.08,140.17-60.73,213.74-73.28,107.32-18.29,215.36-10.11,321.13,24.32,6.3,2.05,9.75,8.82,7.7,15.12s-8.82,9.75-15.12,7.7c-218.21-71.05-401.17-13.46-516.23,47.35-81.99,43.34-250.17,79.69-313.48,93.38-10.39,2.25-19.36,4.19-21.16,4.73-1.25,.38-2.67,.73-4.31,1.15-10.35,2.61-29.61,7.47-39.83,25.27-9.36,16.3-9.53,40.38-.51,71.58,25.86,89.5,183.76,80.42,185.35,80.33,6.35-.4,11.86,4.16,12.67,10.43,.81,6.27-3.38,12.1-9.58,13.32-4.95,.97-13.89,1.49-27.42,2.27-32.54,1.88-86.99,5.03-137.22,17.78-58.27,14.79-93.84,38.22-105.74,69.64-7.06,18.66-6.44,35.52,1.9,51.56,25.23,48.5,110.96,70.84,111.82,71.06,6.42,1.64,10.3,8.17,8.67,14.59-1.38,5.43-6.26,9.05-11.62,9.05Z"/>
      <path class="cls-1" d="M1581.03,368.03c-10.48,0-22.86-2.07-37.29-7.53-50.39-19.07-84.9-50.65-89-54.5-25.64-21.06-99.5-76.14-138.43-82.45-6.54-1.06-10.99-7.22-9.92-13.77,1.06-6.54,7.22-10.98,13.77-9.92,53.49,8.67,146.24,84.65,150.17,87.88l.68,.61c.32,.3,33.41,31.62,81.24,49.71,20.29,7.68,37.5,7.97,49.74,.82,9.92-5.79,16.55-16.56,18.67-30.32,8.31-54.04-5.09-83.06-51.21-110.89-32.41-19.56-78.61-30.51-137.09-44.38-56.95-13.5-127.83-30.31-209.16-61.06-79.09-29.91-124.87-29.36-149.35-23.62-25,5.86-32.39,17.79-32.7,18.29,.1-.16,.14-.25,.14-.25l-21.18-11.29c1.09-2.05,11.65-20.32,44.44-29.16,40.6-10.94,96.83-3.01,167.13,23.58,79.88,30.21,149.93,46.82,206.21,60.16,60.53,14.35,108.33,25.69,143.95,47.19,27.66,16.69,45.17,34.34,55.11,55.52,10.1,21.53,12.45,46.81,7.42,79.56-3.24,21.06-14,37.89-30.29,47.4-7.59,4.43-18.47,8.42-33.04,8.42Z"/>
      <path class="cls-1" d="M1548.23,842.89c-19.89,0-41.07-3.06-55.53-19.36-12.44-14.03-18.91-35.64-22.34-74.6-.58-6.6,4.3-12.42,10.9-13.01,6.6-.58,12.42,4.3,13.01,10.9,5.94,67.42,20.25,73.07,59.58,71.98,9.48-.26,21.29-4.84,28.59-38.25,6.14-28.12,7.32-67.69,8.68-113.52,.38-12.74,.77-25.92,1.29-39.41,3.51-91.24-35.11-174.66-68.12-228.58-35.96-58.74-73-95.87-73.37-96.24-4.7-4.68-4.71-12.27-.04-16.97,4.68-4.7,12.27-4.71,16.97-.04,1.59,1.59,39.45,39.55,76.9,100.71,22.03,35.99,39.3,72.54,51.33,108.66,15.13,45.44,21.96,90.31,20.3,133.37-.51,13.38-.9,26.5-1.28,39.2-1.4,47.02-2.6,87.62-9.22,117.92-3.78,17.29-9.14,30.19-16.4,39.42-8.92,11.35-20.69,17.3-34.97,17.69-2.07,.06-4.17,.09-6.28,.09Z"/>
      <path class="cls-1" d="M1576.29,911.74c-8.86,0-17-.73-24.24-1.61-52.86-6.41-72.28-77.36-73.08-80.38-1.7-6.41,2.11-12.98,8.52-14.68,6.41-1.7,12.98,2.11,14.68,8.52,.15,.57,16.06,58.26,52.78,62.71,45.36,5.5,84.05-3.19,136.74-63.36,15.93-18.2,22.06-39.44,18.21-63.15-6.39-39.36-39.33-77.63-60.65-90.12-37.23-21.81-54.72-59.29-55.45-60.87-2.76-6.02-.12-13.15,5.91-15.91,6.02-2.76,13.13-.12,15.9,5.88h0c.15,.32,15.24,32.3,45.78,50.19,13.67,8.01,29.53,23.16,42.42,40.54,11.1,14.95,25.27,38.61,29.78,66.44,4.98,30.67-3.27,59.31-23.84,82.81-28.19,32.19-55.32,53.06-82.93,63.78-18.26,7.09-35.42,9.21-50.51,9.21Z"/>
      <path class="cls-1" d="M1550.72,1142.33c-9.02,0-16.91-1-22.9-2.92-7.51-2.4-12.83-4.31-16.26-5.83-7.43-3.29-10.83-8.1-10.11-14.3,.67-5.81,5.47-10.36,11.41-10.83,3.76-.3,7.25,1.18,9.65,3.71,2.01,.81,5.78,2.2,12.61,4.39,19.27,6.17,69.34-2.41,96.37-26.43,26.26-23.34,25.55-64.88,22.83-102-1.98-27.03-36.84-66.8-50.1-79.84-4.72-4.65-4.79-12.24-.15-16.97,4.64-4.73,12.24-4.8,16.96-.16,.55,.54,13.5,13.31,26.94,30.98,18.78,24.69,28.96,46.3,30.28,64.23,1.49,20.29,2.41,41.89-.89,62.46-4.11,25.6-13.9,44.98-29.93,59.23-26.83,23.85-67.66,34.27-96.73,34.27Zm-35.96-9.95s-.01,0-.02,0c0,0,.01,0,.02,0Z"/>
      <path class="cls-1" d="M964.6,194.87c-1.82,0-3.64-.66-5.08-1.99-3.03-2.8-3.24-7.52-.45-10.56,.91-1,22.85-24.45,62.38-24.45,4.14,0,7.5,3.36,7.5,7.5s-3.36,7.5-7.5,7.5c-32.68,0-50.6,18.8-51.34,19.6-1.48,1.59-3.49,2.39-5.5,2.39Z"/>
      <path class="cls-1" d="M1052.67,150.26c-1.29,0-2.6-.33-3.79-1.03-3.58-2.09-4.77-6.71-2.68-10.29,.72-1.23,18.08-30.03,62.07-23.12,4.09,.64,6.89,4.48,6.25,8.57-.64,4.09-4.47,6.88-8.57,6.25-33.52-5.26-46.29,15.05-46.82,15.92-1.39,2.38-3.88,3.7-6.45,3.7Z"/>
      <path class="cls-1" d="M1102.91,210.5c-2.68,0-5.28-1.44-6.63-3.98-15.94-29.95-39.86-27.95-40.86-27.85-4.11,.49-7.81-2.47-8.29-6.58-.48-4.11,2.5-7.84,6.61-8.33,1.41-.17,34.86-3.61,55.79,35.71,1.95,3.66,.56,8.2-3.1,10.14-1.12,.6-2.33,.88-3.52,.88Z"/>
      <path class="cls-1" d="M1023.69,145.3c-1.92,0-3.83-.73-5.3-2.19-29.19-29.12-66.73-24.03-67.1-23.97-4.09,.59-7.91-2.24-8.5-6.34-.6-4.1,2.24-7.91,6.34-8.5,1.84-.27,45.41-6.17,79.86,28.2,2.93,2.92,2.94,7.67,.01,10.61-1.46,1.47-3.39,2.2-5.31,2.2Z"/>
      <path class="cls-1" d="M544.11,1067.2c-12.74,0-25.72-5-37.21-14.46-26.5-21.82-39.93-62.36-28.18-85.05,8.64-16.69,15.96-25.46,36.47-33.31,1.89-.73,3.72-1.41,5.47-2.04h0c18.76-6.84,40.12,.3,50.78,16.97,5.18,8.1,8.6,15.38,10.16,21.63,3.25,13.02,12.81,57.08-.9,77.64-6.45,9.68-17.23,16.28-29.58,18.11-2.32,.34-4.67,.51-7.02,.51Zm-8.75-124.46c-3.43,0-6.89,.58-10.24,1.81h0c-1.69,.62-3.45,1.27-5.27,1.97-17.52,6.71-22.46,13.42-29.57,27.15-7.98,15.41,1.34,49.64,24.9,69.04,10.73,8.83,22.82,12.78,34.05,11.12,8.72-1.29,16.25-5.83,20.67-12.46,8-12,5.31-42.43-.9-67.28-1.22-4.88-4.08-10.87-8.5-17.78-5.51-8.62-15.16-13.57-25.13-13.57Zm-12.47-4.3h0Z"/>
      <path class="cls-1" d="M636.98,1039.81c-2.93,0-5.73-.51-8.42-1.53-10.27-3.89-17.47-14.61-22.01-32.76-2.2-8.81-4.38-19.27-6.69-30.34-6.13-29.44-15.41-73.92-26.72-81.06-3.5-2.21-4.55-6.84-2.34-10.34,2.21-3.5,6.84-4.55,10.34-2.34,15.5,9.78,23.62,43.75,33.41,90.69,2.28,10.92,4.43,21.24,6.56,29.76,3.12,12.49,7.66,20.44,12.77,22.37,4.15,1.57,10.17-.33,17.92-5.64,6.14-4.22,2.89-15.07-3.2-32.44-1.85-5.27-3.76-10.73-5.3-16.22-7.56-27,10.49-44.32,11.26-45.05,3.02-2.83,7.77-2.68,10.6,.34,2.82,3.01,2.68,7.73-.3,10.57-.58,.56-12.15,12.11-7.12,30.1,1.41,5.03,3.24,10.26,5.01,15.31,6.37,18.16,13.58,38.74-2.47,49.77-8.6,5.91-16.3,8.84-23.3,8.84Z"/>
      <path class="cls-1" d="M647.23,785.82c-1.89,0-3.78-.71-5.24-2.14-3.08-3.01-5.44-6.44-7.02-10.19-9.07-21.55-13-41.28-11.69-58.65,1.94-25.71,15.85-45.53,40.24-57.31,8.29-4.01,21.64-7.72,40.79-11.35,4.07-.77,7.99,1.9,8.77,5.97,.77,4.07-1.9,7.99-5.97,8.77-17.6,3.33-30.06,6.74-37.06,10.12-42.52,20.55-35.03,63.9-21.25,96.64,.81,1.93,2.01,3.66,3.68,5.28,2.96,2.9,3.01,7.65,.12,10.61-1.47,1.5-3.42,2.26-5.36,2.26Z"/>
      <path class="cls-1" d="M910.67,784.82c-4,0-7.32-3.15-7.49-7.18-.18-4.14,3.04-7.64,7.17-7.81,49.58-2.11,95.88-4.26,117.54-7.3,23.77-3.34,42.39-12.25,53.86-25.77,12-14.15,16.43-33.17,13.15-56.51-2.71-19.28-11.36-32.91-25.71-40.52-10.14-5.38-19.69-5.79-20.56-5.82l-43.25,.99c-4.17,.08-7.57-3.19-7.67-7.33-.09-4.14,3.19-7.58,7.33-7.67l43.4-.99c.07,0,.14,0,.21,0,.55,0,13.59,.16,27.57,7.56,12.96,6.87,29.29,21.41,33.54,51.69,3.84,27.37-1.88,50.99-16.56,68.3-13.88,16.37-35.74,27.07-63.21,30.92-22.36,3.14-67.12,5.22-118.99,7.43-.11,0-.22,0-.33,0Z"/>
      <path class="cls-1" d="M896.78,1076.35c-76.71,0-139.12-60.97-139.12-135.91,0-9.46,1-18.91,2.97-28.08,.87-4.05,4.87-6.62,8.91-5.75,4.05,.87,6.63,4.86,5.75,8.91-1.75,8.14-2.64,16.53-2.64,24.93,0,66.67,55.68,120.91,124.12,120.91s124.12-54.24,124.12-120.91-55.68-120.91-124.12-120.91c-4.16,0-8.36,.2-12.47,.6-4.13,.42-7.79-2.62-8.19-6.74-.4-4.12,2.62-7.79,6.74-8.19,4.59-.45,9.28-.67,13.92-.67,76.71,0,139.12,60.97,139.12,135.91s-62.41,135.91-139.12,135.91Z"/>
      <path class="cls-1" d="M1376.77,1016.14c-3.37,0-6.75-.23-10.13-.7-49.16-6.78-82.26-62.23-73.79-123.61,4.06-29.41,16.95-55.87,36.29-74.52,19.83-19.12,44.06-27.81,68.21-24.48,49.16,6.78,82.26,62.23,73.79,123.61h0c-4.06,29.41-16.95,55.87-36.29,74.52-17.06,16.45-37.37,25.18-58.09,25.18Zm10.54-209c-16.85,0-33.55,7.28-47.76,20.97-16.94,16.33-28.25,39.69-31.85,65.78-7.34,53.18,20.02,101.05,60.98,106.7,19.5,2.69,39.3-4.56,55.75-20.42,16.94-16.33,28.25-39.69,31.85-65.78,7.34-53.18-20.02-101.05-60.98-106.7-2.66-.37-5.33-.55-8-.55Zm76.41,108.27h0Z"/>
      <path class="cls-1" d="M1207.54,1099.78c-17.28,0-32.4-9.88-45.16-18.22-3.44-2.24-6.68-4.37-9.87-6.25-12.91-7.66-20.4-.67-21.77,.81l.07-.08-11.31-9.85c5.54-6.36,21.18-15.34,40.67-3.78,3.46,2.06,7,4.37,10.42,6.6,16.05,10.49,31.21,20.39,48.5,13.49,23.44-9.35,38-20.41,38.94-29.58,1.01-9.79-2.5-26.58-3.93-32.23-1.02-4.01,1.4-8.1,5.42-9.12,4.01-1.02,8.09,1.4,9.12,5.41,.24,.93,5.82,23.02,4.32,37.48-1.62,15.7-17.88,29.82-48.3,41.96-5.91,2.36-11.62,3.36-17.11,3.36Z"/>
      <path class="cls-1" d="M1209.74,1040.38c-2.45,0-4.69-1.65-5.33-4.14-.75-2.94,1.03-5.94,3.97-6.69,30.72-7.84,64.77-2.47,66.2-2.24,3,.49,5.04,3.31,4.55,6.31s-3.31,5.04-6.31,4.55c-.45-.07-33.33-5.2-61.73,2.04-.46,.12-.91,.17-1.36,.17Z"/>
      <path class="cls-1" d="M1202.04,1020.42c-2.46,0-4.69-1.66-5.33-4.15-.75-2.94,1.03-5.94,3.98-6.68,39.37-10,71.27-2.78,72.61-2.47,2.96,.69,4.8,3.65,4.11,6.6-.69,2.96-3.64,4.8-6.6,4.11-.41-.09-30.83-6.87-67.42,2.42-.45,.12-.91,.17-1.36,.17Z"/>
      <path class="cls-1" d="M936.44,1097.29c-2.44,0-4.58-1.79-4.94-4.28-.4-2.73,1.5-5.27,4.23-5.67,48.73-7.07,72.81-39.04,73.04-39.36,1.64-2.22,4.76-2.7,6.99-1.07,2.22,1.63,2.71,4.75,1.08,6.98-1.06,1.45-26.61,35.65-79.67,43.35-.24,.04-.49,.05-.72,.05Z"/>
      <path class="cls-1" d="M815.38,1082.76c-.66,0-1.33-.13-1.97-.41-25.07-10.74-43.95-36.75-44.74-37.85-1.61-2.24-1.1-5.37,1.14-6.98,2.24-1.61,5.37-1.1,6.98,1.14,.27,.37,18.14,24.88,40.56,34.49,2.54,1.09,3.71,4.03,2.63,6.57-.81,1.9-2.66,3.03-4.6,3.03Z"/>
      <path class="cls-1" d="M1052.02,888.77c-.18,0-.36,0-.55-.03-2.75-.3-4.73-2.77-4.43-5.51,3.08-28.37-36.78-57.72-37.18-58.01-2.23-1.62-2.73-4.75-1.1-6.98,1.62-2.24,4.75-2.73,6.98-1.11,1.84,1.33,44.95,33.05,41.24,67.19-.28,2.56-2.45,4.46-4.96,4.46Z"/>
      <path class="cls-1" d="M1381.13,1039.9c-.56,0-.93-.02-1.1-.04-2.75-.22-4.8-2.63-4.58-5.38,.22-2.75,2.66-4.8,5.38-4.58,.04,0,10.79,.45,32.9-10.29,18.9-9.18,10.62-28.08,9.62-30.21-1.18-2.49-.12-5.47,2.36-6.66,2.48-1.19,5.46-.15,6.65,2.33,4.94,10.26,8.33,32.55-14.27,43.53-21.32,10.35-33.3,11.3-36.97,11.3Z"/>
      <path class="cls-1" d="M1451.68,843.37c-2.76,0-5-2.24-5-5v-7.42c-.06-1.2-1.07-19.67-10.81-28.83-11.06-10.41-32.34-21.81-32.56-21.93-2.44-1.3-3.36-4.33-2.06-6.76,1.3-2.44,4.32-3.36,6.76-2.06,.92,.49,22.66,12.14,34.71,23.47,13.05,12.28,13.92,34.9,13.95,35.85v.16s0,7.52,0,7.52c0,2.76-2.24,5-5,5Z"/>
      <path class="cls-1" d="M513.85,1051.85c-2.26,0-4.37-1.4-5.18-3.65-1.02-2.86,.46-6.01,3.32-7.03,1.94-.7,47.86-17.08,68.53-17.18h.03c3.02,0,5.48,2.44,5.5,5.47,.02,3.04-2.43,5.51-5.47,5.53-18.81,.1-64.42,16.38-64.88,16.54-.61,.22-1.24,.32-1.86,.32Z"/>
      <path class="cls-1" d="M494.95,1025.34c-3.98,0-7.04-1.21-9.01-4.36-2.2-3.51-1.14-8.14,2.37-10.34,2.31-1.45,5.1-1.48,7.37-.34,6.68-.48,29.63-8.87,45.06-14.51,13.72-5.02,26.68-9.75,34.57-11.75,4.01-1.01,8.09,1.42,9.11,5.44,1.01,4.02-1.42,8.09-5.44,9.11-7.13,1.8-19.74,6.41-33.08,11.29-11.84,4.33-24.08,8.81-33.81,11.79-6.75,2.07-12.55,3.67-17.12,3.67Zm3.69-12.34s0,0,0,.01c0,0,0,0,0-.01Z"/>
      <path class="cls-1" d="M484.82,999.12c-2.57,0-4.5-.77-6.22-2.29-3.1-2.75-3.39-7.49-.64-10.59,1.98-2.24,5-3.01,7.7-2.23,4.71-.95,19.11-7.81,29.77-12.9,23.51-11.21,39.67-18.58,48.85-18.58,.08,0,.17,0,.25,0,4.14,.06,7.45,3.47,7.39,7.61-.06,4.1-3.41,7.39-7.5,7.39-.07,0-.14,0-.2,0-6.42,0-28.02,10.3-42.33,17.12-20.48,9.77-30.72,14.47-37.07,14.47Z"/>
      <path class="cls-1" d="M1094.26,1306.52c-112.45,0-218.56-24.47-242.63-30.4h0c-2.07-.51-4.14-1.01-6.22-1.48-9.92-2.26-60.3-15.97-77.86-64.53-20.25-55.99,9.83-77.18,29.55-84.83,21.22-8.23,63.17-8.34,124.69-.33,123.51,16.09,247.45,4.09,368.38-35.66,21.42-7.04,42.26-15.83,61.94-26.12,18.52-9.68,54.47-24.22,87.17-12.81,20.46,7.14,35.64,23.58,42.76,46.28,8.37,26.69,3.78,57.72-11.68,79.05-15.21,20.98-53.97,47.88-101.16,70.19-41.1,19.43-108.17,44.9-194.27,55.86-26.56,3.38-53.8,4.78-80.67,4.78Zm-239.99-41.08c29.49,7.27,183.48,42.67,319.27,25.39,155.51-19.79,264.25-88.96,287.91-121.59,13.49-18.61,17.46-45.81,10.09-69.3-6.05-19.3-18.79-33.21-35.89-39.18-28.79-10.05-61.5,3.31-78.44,12.17-20.21,10.57-41.61,19.59-63.6,26.82-74.97,24.64-152.39,38.87-230.12,42.28-48.16,2.12-94.98,.1-143.12-6.17-74.32-9.68-105.89-5.52-119.29-.33-28.4,11.01-36.2,34.84-23.19,70.83,15.61,43.18,61.01,55.51,69.95,57.54,2.15,.49,4.27,1,6.41,1.53h0Z"/>
      <path class="cls-1" d="M1199.06,1342.84c-20.69,0-35.04-7.2-36.07-7.73-2.7-1.39-3.76-4.71-2.36-7.41,1.39-2.69,4.7-3.75,7.4-2.37,1.6,.81,38.99,19.28,79.58-9.89,2.47-1.77,5.9-1.21,7.68,1.26,1.77,2.47,1.21,5.9-1.26,7.68-19.94,14.33-39.28,18.47-54.97,18.47Z"/>
      <path class="cls-1" d="M1077.19,1226.6c-47.69,0-91.19-4.55-125.11-9.7-66.01-10.01-111.12-24.39-111.56-24.54-2.89-.93-4.48-4.03-3.55-6.92,.93-2.89,4.03-4.48,6.92-3.55,.44,.14,44.88,14.3,110.07,24.17,60.04,9.09,150.5,16.31,240.44-.94,170.51-32.7,207.07-66.3,207.42-66.63,2.15-2.15,5.61-2.12,7.76,.03,2.15,2.15,2.12,5.65-.03,7.8-1.46,1.45-37.68,35.97-213.08,69.61-40.61,7.79-81.28,10.68-119.28,10.68Z"/>
      <path class="cls-1" d="M1415.91,1138.98c-2.32,0-4.48-1.48-5.23-3.81-.93-2.89,.64-5.98,3.53-6.92,5.15-1.69,11.17-5.52,11.21-7.93,.05-3.01,2.5-5.41,5.5-5.41,.03,0,.06,0,.09,0,3.04,.05,5.46,2.55,5.41,5.59-.18,11.6-15.7,17.21-18.81,18.21-.56,.18-1.13,.27-1.7,.27Z"/>
      <path class="cls-1" d="M1367.22,753.3c-4.08,0-7.42-3.27-7.5-7.37-.07-4.14,3.22-7.56,7.37-7.63,10.31-.18,21.86-.27,34.09-.37,32.2-.25,68.69-.54,84.22-2.72,12.23-1.72,21.23-7.99,26.75-18.64,6.19-11.95,7.9-29.4,4.94-50.47-5.42-38.63-24.48-42.74-26.5-43.07l-35.66-1.55s-.1,0-.15,0c-.33-.02-33.09-2.05-74.11-.02-4.16,.19-7.66-2.98-7.86-7.12-.2-4.14,2.98-7.66,7.12-7.86,41.32-2.04,73.51-.12,75.73,.02l35.91,1.56c.11,0,.22,.01,.32,.02,1.33,.12,32.68,3.44,40.06,55.93,3.44,24.52,1.26,44.52-6.48,59.46-7.78,15-20.91,24.2-37.98,26.59-16.51,2.32-51.93,2.6-86.19,2.87-12.19,.1-23.71,.19-33.94,.37-.04,0-.09,0-.14,0Z"/>
      <path class="cls-1" d="M904.35,891.66c-18.94,0-35.2,14.25-42.29,34.63-1.61,4.62,1.34,9.57,6.17,10.37,12.18,2,26.77,5.11,33.59,9.25,12.84,7.8,5.96,10.09,5.93,14.22-.02,2.21-17.04,5.75-32.82,8.55-7.25,1.29-10.88,9.5-6.99,15.74,8.43,13.54,21.6,22.25,36.4,22.25,25.45,0,46.09-25.74,46.09-57.5s-20.63-57.5-46.09-57.5Z"/>
      <path class="cls-1" d="M1390.53,867.86c-11.51,0-21.67,7.85-27.76,19.84-3.15,6.2,.37,13.76,7.12,15.45,6.32,1.58,11.98,3.46,15.53,5.62,12.84,7.8,5.96,10.09,5.93,14.22-.01,1.56-8.51,3.79-19.05,5.94-7.34,1.5-10.82,9.97-6.64,16.19,6.17,9.17,15.03,14.92,24.87,14.92,18.65,0,33.78-20.63,33.78-46.09s-15.12-46.09-33.78-46.09Z"/>
      <path class="cls-1" d="M983.75,1487.01c-24.45,0-52.16-6.61-73.53-27.44-36.44-35.51-39.41-52.17-39.41-68.82,0-14.03,4.73-29.67,4.94-30.33l2.51-8.22,176.26,45.24,.32,6.63c.03,.6,.7,14.93-1.22,30.64-2.89,23.74-9.93,37.84-21.51,43.11-10.36,4.71-28.26,9.18-48.37,9.18Zm-92.88-112.98c-1.03,4.84-2.06,11.08-2.06,16.73,0,10.17,0,22.83,33.97,55.92,31.98,31.16,83.36,23.19,101.89,14.76,8.55-3.89,12.39-29.56,12.35-49.9l-146.15-37.51Z"/>
      <path class="cls-1" d="M832.1,1467.62c-3.38,0-6.61-1.91-8.14-5.17-.63-1.35-15.34-33.5-.04-67.16,7.04-15.48,20.14-24.31,36.9-24.88,11.76-.39,21.32,3.32,22.37,3.75,4.61,1.87,6.83,7.12,4.96,11.72-1.86,4.6-7.09,6.82-11.69,4.97-2.71-1.07-26.36-9.65-36.15,11.88-11.79,25.93-.15,51.84-.03,52.1,2.07,4.5,.12,9.85-4.38,11.94-1.23,.57-2.52,.84-3.79,.84Z"/>
      <path class="cls-1" d="M910.07,1547.42c-1.3,0-2.61-.28-3.86-.88l-19.26-9.17c-20.83-9.92-44.88-44.08-47.56-47.95-2.83-4.09-1.81-9.69,2.28-12.52,4.08-2.83,9.69-1.81,12.52,2.27h0c6.52,9.41,26.5,35.28,40.5,41.94l19.26,9.17c4.49,2.14,6.39,7.51,4.26,12-1.54,3.24-4.77,5.13-8.13,5.13Z"/>
      <path class="cls-1" d="M982.58,1561.52c-11.93,0-20.19-1.23-21.07-1.37-4.91-.76-8.27-5.37-7.51-10.28,.76-4.91,5.36-8.28,10.27-7.51,.62,.1,50.56,7.37,81.09-16.76,13.94-11.02,21.88-27.28,23.59-48.34,.4-4.95,4.75-8.62,9.7-8.24,4.95,.4,8.64,4.75,8.24,9.7-2.14,26.27-12.39,46.81-30.45,61.05-23.11,18.22-53.72,21.73-73.87,21.73Z"/>
      <path class="cls-1" d="M1299.9,1730.69c-4.19,0-8.27-2.1-10.64-5.92-37.56-60.65-139.65-222.84-160.71-244.62-8.82-9.13-20.85-18.44-32.73-26.67-1.54,3.58-4.73,6.38-8.83,7.27-6.75,1.47-13.4-2.81-14.87-9.56l-3.27-15.04c-9.48-5.68-16.03-9.22-16.21-9.31l-65.99-35.46,101.67,16.66,2.68,12.34c17.66,11.06,40.31,26.67,55.51,42.4,27.22,28.16,158.41,239.83,163.98,248.83,3.63,5.87,1.82,13.57-4.05,17.21-2.05,1.27-4.32,1.88-6.57,1.88Z"/>
      <path class="cls-1" d="M468.9,1788.9c-1.99,0-4.02-.34-6-1.07-9.08-3.31-13.75-13.36-10.44-22.44,1.91-5.22,47.21-128.64,93.92-194.03,20.6-28.84,71.19-64.87,150.35-107.07,57.77-30.79,110.63-54,111.16-54.23,8.86-3.88,19.17,.16,23.05,9.01,3.88,8.85-.16,19.17-9.01,23.05-56.75,24.85-211.76,100.16-247.06,149.58-43.97,61.56-89.07,184.45-89.52,185.69-2.59,7.1-9.3,11.5-16.44,11.5Z"/>
      <path class="cls-1" d="M892.65,1508.88c-.39,0-.79-.05-1.18-.14-2.68-.65-4.33-3.35-3.68-6.04,2.75-11.35,20.69-26.78,22.73-28.51,2.11-1.78,5.26-1.52,7.04,.59,1.78,2.11,1.52,5.26-.58,7.05-6.73,5.7-17.97,17.05-19.47,23.23-.55,2.29-2.6,3.82-4.86,3.82Z"/>
      <path class="cls-1" d="M877.65,1495.88c-.39,0-.79-.05-1.18-.14-2.68-.65-4.33-3.35-3.68-6.04,2.75-11.35,20.69-26.78,22.73-28.51,2.11-1.78,5.26-1.52,7.04,.59s1.52,5.26-.58,7.05c-6.73,5.7-17.97,17.05-19.47,23.23-.55,2.29-2.6,3.82-4.86,3.82Z"/>
      <path class="cls-1" d="M864.65,1479.88c-.39,0-.79-.05-1.18-.14-2.68-.65-4.33-3.35-3.68-6.04,2.75-11.35,20.69-26.78,22.73-28.51,2.11-1.78,5.26-1.52,7.04,.59,1.78,2.11,1.52,5.26-.58,7.05-6.73,5.7-17.97,17.05-19.47,23.23-.55,2.29-2.6,3.82-4.86,3.82Z"/>
      <polygon class="cls-1" points="1038.47 1439.75 885.75 1379.38 888.2 1366.99 1042.75 1409.79 1038.47 1439.75"/>
      <path class="cls-1" d="M726.53,1185.3c-1.71,0-3.21-1.25-3.46-3-.24-1.62-5.47-40.05,21.89-62.38,1.5-1.22,3.7-1,4.92,.5s1,3.7-.5,4.92c-24.25,19.78-19.44,55.59-19.39,55.95,.27,1.91-1.05,3.69-2.96,3.96-.17,.02-.34,.04-.5,.04Z"/>
    </g>
  </g>
</svg>