<?xml version="1.0" encoding="UTF-8"?>
<svg id="Livello_1" data-name="Livello 1" xmlns="http://www.w3.org/2000/svg" viewBox="0 0 713.89 207.72">
  <defs>
    <style>
      .cls-1 {
        fill: blue;
      }
    </style>
  </defs>
  <path class="cls-1" d="m205.23,101.02c3.52-3.77,7.57-11.48,3.44-16.16-4.06-4.59-14.06-4.05-29.74,1.61-34.72,12.54-137.13,34.84-140.32,35.31h-.11c-4.56.54-5.11-.22-5.12-.23-.06-.13-1.24-3.47,18.83-18.23,19.44-14.3,53.08-35.22,99.98-62.18,2.83-1.39,24.38-12.38,18.33-21.43-2.09-3.13-4.92-4.91-8.66-5.44-10.62-1.5-28.91,7.88-57.54,29.54C58.57,78.44,6.93,121.3,1.68,133.58c-2.5,5.84-2.21,9.95.88,12.56,5.16,4.36,17.72,3.21,38.4-3.53,7.85-2.56,15.22-4.99,22.06-7.24,26.58-8.75,47.54-15.65,51.27-15.26l.27.03c2.16.23,3.51.42,3.98,1.17.63.99.87,4.09-4.61,13.78-6.66,11.8-30.39,58.26-27.15,65.88,1.65,3.89,6.59,6.75,11.46,6.75.25,0,.5,0,.74-.02,2.49-.15,8.49-1.38,10.47-9.49,3.45-14.09,10.28-36.75,29.82-70.73l.12-.26c.04-.11,4.13-10.89,16.57-14.44,4.86-1.39,11.61-2.3,18.76-3.27,13.29-1.81,25.85-3.51,30.49-8.48h.02Z"/>
  <path class="cls-1" d="m712.38,145.01c-4.6-14.98-49.38-66.79-89.04-108.58C591.11,2.46,579.04-.82,572.14.13c-4.26.58-7.53,3.17-9.7,7.7-5.51,11.5,12.53,24.7,16.37,27.34,41.38,33.13,70.75,58.63,87.29,75.79,11.56,12,14.07,17.08,14.61,18.85-.4,0-.97-.05-1.76-.18-3.48-.84-90.79-27.26-120.65-42.29-13.35-6.72-22.26-7.73-27.22-3.09-6.11,5.7-2.33,16.83,1.48,22.51,4.47,6.66,16.3,8.9,27.75,11.06,4.05.77,7.44,1.53,11.37,2.42,1.99.45,4.11.93,6.5,1.44.2.04,20.13,4.51,30.58,7.96,20.34,6.73,26.85,9.7,51.07,20.77,4.5,2.05,9.6,4.39,15.52,7.07,11.26,5.11,19.76,7.6,25.97,7.6,3.46,0,6.28-.79,8.4-2.36,4.46-3.29,5.33-9.09,2.68-17.73l-.02.02Z"/>
  <path class="cls-1" d="m217.69,137.03c11.36-13.29,17.26-26.75,20.22-35.7,1.94-5.89,4.91-17.59,2.25-19.72-1.23-.99-2.75-1.34-4.28-1-2.58.59-4.67,3.05-6.19,7.32-2.02,5.67-18.58,27.78-31.64,42.24-6.6,7.31-8.75,7.17-8.74,7.19-.36-.26-.94-1.97-.39-5.65,1.35-9.05-.64-10.75-1.29-11.31-.97-.82-2.96-1.43-5.25-.93-5.61,1.23-10.58,8.15-14.77,20.54-3.43,10.13-3.43,17.71,0,22.54,2.51,3.53,5.92,4.2,6.3,4.26l.2.03h.2c14.47-.12,22.99-5.97,43.38-29.83v.02Z"/>
  <path class="cls-1" d="m322.26,93c13.64-9.27,19.54-25.79,14.66-41.1-4.44-13.95-16.96-23.47-33.49-25.45-33.03-3.97-65.44,8.8-91.53,19.08-2.54,1-5,1.97-7.39,2.89-10.08,3.9-16.05,8.93-16.39,13.81-.18,2.63,1.2,4.92,3.81,6.26,8.15,4.22,29.22-1.64,56.37-15.66,9.99-5.15,39.05-17.22,53.31-11.2,4.94,2.08,7.64,6.06,8.5,12.53,2.91,22.02-19.12,36.43-35.22,46.95-9.68,6.32-16.07,10.5-16.83,15.79-.29,2.03.34,3.97,1.79,5.46,3.32,3.42,9.99,3.78,18.43,4.23,5.02.27,15.46.83,16.66,2.98.24.43.04,2.52-3.67,6.97-19,22.76-74.93,36.48-78.12,37.25-1.28.23-5.82,1.3-14.87,5.81-4.46,2.22-5.09,4.93-4.85,6.81.26,1.94,1.71,4.57,7.17,6.02,2.2.59,4.94.92,7.51.92,3.26,0,7.67-.53,10.3-3.02,1.53-1.06,12.08-5.09,20.61-8.34,27.9-10.64,70.05-26.72,85.59-41.71,8.52-8.22,11.06-15.17,7.55-20.64-6.59-10.27-31.81-7.39-36.8-6.71-.13.02-.25.03-.38.05,4.13-3.77,13.25-10.47,27.27-19.99h.01Z"/>
  <path class="cls-1" d="m373.22,84.16c1.82-35.95-2.34-36.93-4.57-37.46-.85-.2-3.01-.35-4.8,2.49-.44.7-1.79,2.83-6.25,33.95-.53,3.66-1.17,7.39-1.92,11.08-2.56,12.61-6.14,35.35-1.35,46,3.83,8.52,10.52,9.86,14.34,9.86.89,0,1.63-.07,2.14-.15,4.86-.69,8.78-3.57,8.91-6.56.44-9.78-1.13-14.96-2.8-20.44-2.27-7.47-4.85-15.94-3.69-38.79v.02Z"/>
  <path class="cls-1" d="m503.46,60.01l-.32-.59c-4.24-7.65-9.19-13.67-14.67-17.84-21.57-17.74-58.87-15.57-67.5-13.38-16.27,4.14-27.89,15.15-31.07,29.46-1.48,6.67-1.48,13.55-1.49,20.2v2.2c-.04,12.6,5.64,16.84,9.79,19.94,2.63,1.96,4.01,3.09,4.05,5.2.03,1.23-.97,1.82-3.42,2.96-3.37,1.58-8.46,3.97-7.96,12.07.19,3.04,1.54,5.78,2.85,8.43l.46.94c3.12,6.4,8.11,12.49,14.83,18.09.95.79,1.9,1.59,2.83,2.39,3.43,2.92,6.98,5.94,11.02,8.51,9.89,6.28,21.31,10.27,32.35,14.12l11.31,3.96c.07.03.34.11.77.22,3.93.97,7.89,1.46,11.77,1.46.58,0,1.16,0,1.73-.03,15-.57,26.11-5.08,33.01-13.42,14.67-17.73,7.95-48.45-.2-78.42-.49-1.66-4.93-16.47-10.18-26.47h.04Zm-86.49,67.84c.81-1.53,3.06-3.25,6.96-3.47,1.21-.07,2.59-.13,4.07-.19,10.31-.43,17.79-.93,20.15-3.51,1.2-1.31,1.73-3.01,1.49-4.78-.67-4.92-7.45-9.15-17.72-15.56-22.7-14.17-29.06-28.67-20.01-45.63,2.36-4.41,8.89-9.2,16.64-12.2,3.21-1.24,6.87-1.87,10.89-1.87,2.17,0,4.43.19,6.72.56,11.03,1.78,21.33,6.49,28.26,12.92l.33.31c2.91,2.78,5.4,6.42,7.83,11.45,2.5,5.16,4.57,9.72,6.34,13.94,1.76,4.21,3.49,8.65,5.27,13.59,3.4,9.41,6.4,19.05,8.91,28.65.97,3.72,1.39,7.69,1.8,11.58.23,2.17.46,4.42.8,6.64,1.05,6.97-.9,12.96-5.64,17.34-5.41,5.01-13.78,7.64-21.84,6.87-4.34-.41-17.01-5.46-17.66-5.72-.79-.35-1.52-.59-2.37-.86-2.82-.91-7.55-2.44-22.07-11.19-2.68-1.61-9.83-6.8-11.88-8.49-4.19-3.44-6.06-6.59-7.17-8.47l-.34-.57c-.08-.13-.11-.62.27-1.34h-.03Z"/>
  <path class="cls-1" d="m622.17,148.27c-4.16.91-7.54,3.42-9.8,7.25-4.28,7.28-4.03,18.28.63,28.04,4.14,8.67,11.44,15.46,19.55,18.17,2.55.85,5.09,1.28,7.56,1.28s5.04-.46,7.36-1.39c14.89-5.95,19.83-16.06,13.9-28.48-6.51-13.64-25.87-27.8-39.19-24.88h-.01Zm13.42,35.2c-.97.32-4.2.92-8.76-.8-3.4-1.29-6.78-5.33-8.69-10.15-3-7.58-1.42-14.33,2.04-15.23,1.36-.35,3.17-.08,3.35-.07,1.4.07,3.33.63,3.81.82,3.75,1.5,9.04,8.11,11.55,14.43,3.06,7.72.05,9.9-3.3,11.01h0Z"/>
  <path class="cls-1" d="m690.27,184.32c-2.88-.86-5.87-.53-8.42.91-2.48,1.4-4.24,3.71-4.96,6.49-1.49,5.76,2.02,11.85,7.82,13.58,1.05.31,2.12.47,3.18.47,1.83,0,3.63-.47,5.24-1.38,2.48-1.4,4.24-3.71,4.96-6.49,1.49-5.76-2.02-11.85-7.82-13.58Z"/>
  <path class="cls-1" d="m360.12,34.95c.62.8,1.35,1.48,2.16,2.01,5.23,3.41,9.16,2.84,11.08-1.62,2.11-4.9,1.24-13.94-2.78-17.5-1.26-1.11-2.76-1.65-4.34-1.55-3.01.19-5.93,2.57-7.44,6.08-1.34,3.11-1.41,6.83-.17,9.93.39.98.89,1.86,1.49,2.64h0Z"/>
</svg>