<svg width="212" height="43" viewBox="0 0 212 43" fill="none" xmlns="http://www.w3.org/2000/svg">
<rect x="0.75" y="0.75" width="195.483" height="41.5" rx="20.75" stroke="white" stroke-width="1.5"/>
<path d="M36.0805 29V10.3555H33.3801L26.9456 26.0412H26.8422L20.4078 10.3555H17.7073V29H19.878V14.6322H19.9684L25.912 29H27.8759L33.8194 14.6322H33.9099V29H36.0805ZM40.4736 34.0261C42.9026 34.0261 44.0138 33.0829 45.1638 29.9432L50.4483 15.5625H48.0838L44.3627 26.7518H44.3239L40.6028 15.5625H38.1995L43.1611 29.0129L42.851 29.9561C42.3341 31.5195 41.6364 32.1268 40.3831 32.1268C40.0989 32.1268 39.75 32.1139 39.5045 32.0622V33.9486C39.75 34.0003 40.2022 34.0261 40.4736 34.0261ZM57.0895 23.9997C57.3092 27.2169 60.0225 29.3101 64.0925 29.3101C68.2659 29.3101 70.9793 27.1523 70.9793 23.7025C70.9793 21.0667 69.4417 19.5162 65.5526 18.6635L63.4853 18.2112C60.9399 17.6556 59.945 16.6478 59.945 15.1749C59.945 13.2755 61.741 12.1385 64.0667 12.1385C66.4958 12.1385 68.1109 13.3918 68.3176 15.4333H70.6433C70.54 12.2677 67.8525 10.0454 64.1313 10.0454C60.268 10.0454 57.5547 12.2031 57.5547 15.2782C57.5547 17.927 59.1698 19.6196 62.9038 20.4336L64.9712 20.8858C67.5553 21.4543 68.5889 22.488 68.5889 24.0514C68.5889 25.8861 66.7542 27.2169 64.2218 27.2169C61.5472 27.2169 59.6866 26.0024 59.4153 23.9997H57.0895ZM79.8816 15.3299C77.9306 15.3299 76.3672 16.3248 75.5403 17.8365H75.4886V15.5625H73.3567V33.4835H75.6049V26.8164H75.6565C76.4576 28.2894 78.0081 29.2326 79.9333 29.2326C83.3185 29.2326 85.6313 26.4934 85.6313 22.2813C85.6313 18.0691 83.3056 15.3299 79.8816 15.3299ZM79.4423 27.2557C77.1424 27.2557 75.5919 25.2788 75.5919 22.2813C75.5919 19.2966 77.1424 17.3068 79.4423 17.3068C81.8326 17.3068 83.3314 19.2449 83.3314 22.2813C83.3314 25.3305 81.8326 27.2557 79.4423 27.2557ZM91.8332 29.2326C93.6421 29.2326 95.3477 28.2248 96.1487 26.6872H96.2004V29H98.3323V19.71C98.3323 17.0355 96.3425 15.3299 93.1899 15.3299C90.0114 15.3299 88.0216 17.113 87.8666 19.4387H90.0373C90.3215 18.1208 91.4069 17.3068 93.1382 17.3068C94.9988 17.3068 96.0841 18.2888 96.0841 19.9297V21.0538L92.2338 21.2734C89.1328 21.4543 87.3627 22.9014 87.3627 25.2013C87.3627 27.6175 89.1587 29.2326 91.8332 29.2326ZM92.3371 27.3203C90.7221 27.3203 89.6496 26.4805 89.6496 25.2013C89.6496 23.9351 90.6833 23.134 92.4922 23.0177L96.0841 22.7981V23.8963C96.0841 25.8344 94.4561 27.3203 92.3371 27.3203ZM101.188 29H103.436V20.6274C103.436 18.7281 104.573 17.4748 106.317 17.4748C106.86 17.4748 107.338 17.5394 107.519 17.604V15.4204C107.338 15.3945 107.002 15.3299 106.614 15.3299C105.038 15.3299 103.798 16.2731 103.358 17.759H103.307V15.5625H101.188V29ZM117.623 25.1496C117.248 26.4159 115.995 27.2816 114.289 27.2816C111.873 27.2816 110.361 25.5889 110.361 23.0177V22.8885H120V22.0358C120 17.9657 117.765 15.3299 114.134 15.3299C110.426 15.3299 108.049 18.1596 108.049 22.3329C108.049 26.558 110.387 29.2326 114.238 29.2326C117.171 29.2326 119.445 27.5012 119.832 25.1496H117.623ZM114.096 17.2809C116.215 17.2809 117.623 18.8831 117.675 21.1313H110.374C110.517 18.896 111.989 17.2809 114.096 17.2809ZM135.092 29V12.4486H140.971V10.3555H126.887V12.4486H132.766V29H135.092ZM143.671 13.1722C144.459 13.1722 145.079 12.5391 145.079 11.7638C145.079 10.9757 144.459 10.3555 143.671 10.3555C142.896 10.3555 142.263 10.9757 142.263 11.7638C142.263 12.5391 142.896 13.1722 143.671 13.1722ZM142.547 29H144.795V15.5625H142.547V29ZM147.831 29H150.08V20.5757C150.08 18.7151 151.372 17.3197 153.155 17.3197C154.822 17.3197 155.907 18.3792 155.907 19.9943V29H158.155V20.4594C158.155 18.6376 159.408 17.3197 161.191 17.3197C162.962 17.3197 163.982 18.405 163.982 20.2398V29H166.23V19.723C166.23 17.0613 164.512 15.3299 161.85 15.3299C159.964 15.3299 158.388 16.2861 157.638 17.8882H157.587C157.005 16.2602 155.648 15.3299 153.814 15.3299C152.005 15.3299 150.635 16.2861 150.002 17.7073H149.95V15.5625H147.831V29ZM178.014 25.1496C177.639 26.4159 176.386 27.2816 174.681 27.2816C172.264 27.2816 170.753 25.5889 170.753 23.0177V22.8885H180.392V22.0358C180.392 17.9657 178.156 15.3299 174.526 15.3299C170.817 15.3299 168.44 18.1596 168.44 22.3329C168.44 26.558 170.779 29.2326 174.629 29.2326C177.562 29.2326 179.836 27.5012 180.224 25.1496H178.014ZM174.487 17.2809C176.606 17.2809 178.014 18.8831 178.066 21.1313H170.766C170.908 18.896 172.381 17.2809 174.487 17.2809Z" fill="white"/>
</svg>
