<?xml version="1.0" encoding="UTF-8"?>
<svg id="Livello_2" data-name="Livello 2" xmlns="http://www.w3.org/2000/svg" viewBox="0 0 2125.86 713.04">
  <defs>
    <style>
      .cls-1 {
        letter-spacing: .01em;
      }

      .cls-2 {
        stroke-width: 0px;
      }

      .cls-2, .cls-3 {
        fill: #f7f5f2;
      }

      .cls-4 {
        letter-spacing: 0em;
      }

      .cls-3 {
        font-family: SFProDisplay-Medium, 'SF Pro Display';
        font-size: 79.61px;
        font-weight: 500;
      }

      .cls-5 {
        letter-spacing: 0em;
      }
    </style>
  </defs>
  <g>
    <path class="cls-2" d="M611.17,395.3c10.48-11.22,22.54-34.2,10.24-48.11-12.08-13.67-41.88-12.06-88.55,4.8-103.39,37.35-408.39,103.74-417.86,105.16l-.31.04c-13.58,1.57-15.23-.69-15.24-.72-.18-.41-3.68-10.34,56.06-54.28,57.9-42.59,158.06-104.89,297.73-185.16,8.41-4.14,72.6-36.85,54.6-63.84-6.22-9.33-14.66-14.63-25.79-16.2-31.62-4.46-86.1,23.47-171.34,87.96C174.42,328.06,20.63,455.68,5,492.26c-7.44,17.4-6.58,29.64,2.63,37.42,15.39,12.99,52.77,9.55,114.34-10.52,23.38-7.63,45.34-14.85,65.68-21.55,79.16-26.05,141.58-46.62,152.66-45.46l.8.08c6.43.68,10.44,1.26,11.86,3.49,1.87,2.94,2.58,12.19-13.72,41.03-19.84,35.14-90.49,173.5-80.85,196.2,4.91,11.57,19.61,20.1,34.14,20.1.73,0,1.48-.03,2.21-.07,7.4-.45,25.28-4.12,31.18-28.27,10.26-41.96,30.63-109.46,88.81-210.63l.37-.79c.12-.33,12.29-32.42,49.35-43,14.47-4.13,34.57-6.85,55.87-9.75,39.58-5.37,76.97-10.46,90.79-25.25h.03Z"/>
    <path class="cls-2" d="M2121.42,526.29c-13.69-44.62-147.05-198.89-265.16-323.35-96-101.15-131.93-110.91-152.48-108.11-12.7,1.73-22.41,9.45-28.88,22.93-16.42,34.24,37.31,73.55,48.76,81.41,123.24,98.66,210.69,174.59,259.96,225.71,34.43,35.74,41.91,50.87,43.51,56.13-1.19-.03-2.88-.16-5.26-.54-10.37-2.5-270.36-81.2-359.31-125.93-39.76-20-66.27-23.01-81.07-9.21-18.19,16.97-6.95,50.13,4.4,67.05,13.31,19.83,48.56,26.5,82.63,32.95,12.07,2.28,22.16,4.56,33.86,7.19,5.92,1.34,12.23,2.75,19.34,4.3.6.13,59.94,13.42,91.06,23.71,60.56,20.04,79.96,28.9,152.09,61.84,13.39,6.12,28.6,13.07,46.21,21.06,33.55,15.23,58.84,22.63,77.33,22.63,10.3,0,18.71-2.36,25-7.01,13.28-9.8,15.88-27.08,7.99-52.79h0Z"/>
    <path class="cls-2" d="M648.27,502.55c33.84-39.59,51.41-79.65,60.21-106.31,5.78-17.53,14.63-52.38,6.71-58.72-3.68-2.95-8.19-4-12.74-2.96-7.69,1.76-13.89,9.1-18.43,21.79-6.02,16.88-55.33,82.72-94.23,125.8-19.64,21.75-26.07,21.36-26.01,21.41-1.09-.76-2.79-5.87-1.15-16.83,4.01-26.96-1.91-32.02-3.85-33.68-2.87-2.45-8.81-4.26-15.62-2.77-16.7,3.68-31.49,24.26-43.99,61.18-10.21,30.17-10.21,52.75,0,67.13,7.48,10.52,17.61,12.5,18.75,12.7l.59.1h.59c43.1-.35,68.45-17.78,129.19-88.84h-.01Z"/>
    <path class="cls-2" d="M959.68,371.43c40.63-27.61,58.17-76.8,43.67-122.38-13.22-41.56-50.51-69.89-99.72-75.8-98.34-11.81-194.88,26.21-272.59,56.84-7.56,2.97-14.9,5.87-22,8.61-30.01,11.6-47.81,26.59-48.82,41.12-.55,7.85,3.59,14.64,11.34,18.65,24.27,12.55,87.02-4.88,167.85-46.63,29.76-15.35,116.28-51.27,158.77-33.37,14.72,6.2,22.75,18.06,25.31,37.32,8.68,65.59-56.94,108.47-104.89,139.81-28.82,18.83-47.85,31.27-50.1,47.01-.86,6.04,1.02,11.82,5.32,16.26,9.88,10.18,29.75,11.24,54.88,12.59,14.95.8,46.05,2.46,49.62,8.89.71,1.28.13,7.5-10.94,20.77-56.59,67.79-223.14,108.63-232.63,110.92-3.81.69-17.35,3.88-44.27,17.3-13.28,6.61-15.18,14.68-14.43,20.26.76,5.79,5.08,13.6,21.34,17.94,6.54,1.74,14.7,2.75,22.37,2.75,9.71,0,22.86-1.57,30.69-8.98,4.55-3.16,35.99-15.15,61.37-24.83,83.07-31.68,208.61-79.56,254.87-124.2,25.38-24.49,32.95-45.17,22.49-61.48-19.62-30.59-94.72-22-109.59-19.97-.38.05-.76.1-1.11.14,12.28-11.23,39.47-31.16,81.21-59.55h0Z"/>
    <path class="cls-2" d="M1111.44,345.1c5.41-107.06-6.96-109.98-13.6-111.54-2.53-.59-8.96-1.06-14.3,7.43-1.32,2.08-5.32,8.44-18.62,101.09-1.57,10.92-3.49,22.02-5.73,33.01-7.63,37.55-18.29,105.26-4.02,136.99,11.41,25.36,31.32,29.34,42.7,29.34,2.66,0,4.86-.22,6.37-.43,14.48-2.06,26.14-10.64,26.54-19.53,1.31-29.12-3.37-44.53-8.33-60.86-6.76-22.25-14.43-47.47-11-115.5h0Z"/>
    <path class="cls-2" d="M1499.27,273.18l-.96-1.76c-12.63-22.79-27.38-40.7-43.68-53.13-64.23-52.83-175.3-46.37-201.01-39.84-48.46,12.32-83.05,45.12-92.52,87.74-4.42,19.85-4.42,40.34-4.43,60.15v6.57c-.12,37.51,16.8,50.14,29.15,59.37,7.84,5.84,11.94,9.2,12.06,15.49.08,3.66-2.88,5.41-10.17,8.82-10.03,4.7-25.19,11.81-23.69,35.95.56,9.06,4.59,17.22,8.49,25.11l1.38,2.79c9.28,19.06,24.14,37.18,44.18,53.86,2.84,2.37,5.65,4.74,8.44,7.13,10.22,8.69,20.8,17.69,32.83,25.33,29.46,18.71,63.46,30.57,96.35,42.04l33.69,11.79c.2.08,1.02.33,2.31.64,11.7,2.88,23.5,4.35,35.06,4.35,1.72,0,3.45-.04,5.15-.1,44.69-1.69,77.75-15.14,98.3-39.97,43.69-52.81,23.68-144.28-.58-233.54-1.45-4.93-14.69-49.04-30.33-78.82h-.01ZM1241.72,475.21c2.4-4.56,9.11-9.68,20.71-10.34,3.59-.21,7.72-.38,12.11-.56,30.69-1.27,52.97-2.77,60-10.44,3.58-3.91,5.14-8.96,4.43-14.25-1.98-14.64-22.19-27.26-52.77-46.35-67.61-42.2-86.53-85.38-59.58-135.88,7.02-13.14,26.46-27.4,49.54-36.33,9.55-3.7,20.46-5.57,32.42-5.57,6.46,0,13.2.56,20.01,1.66,32.84,5.31,63.52,19.33,84.15,38.46l.97.9c8.66,8.3,16.07,19.12,23.31,34.1,7.43,15.36,13.6,28.94,18.88,41.5,5.26,12.53,10.39,25.76,15.7,40.46,10.13,28.02,19.06,56.72,26.53,85.33,2.9,11.06,4.14,22.91,5.35,34.47.68,6.47,1.38,13.17,2.39,19.79,3.12,20.75-2.69,38.61-16.79,51.65-16.12,14.91-41.03,22.74-65.04,20.46-12.92-1.23-50.64-16.25-52.59-17.02-2.36-1.05-4.53-1.74-7.05-2.57-8.41-2.73-22.49-7.27-65.72-33.31-7.97-4.8-29.26-20.23-35.38-25.27-12.48-10.25-18.03-19.61-21.36-25.21l-1.01-1.69c-.24-.38-.34-1.85.8-4h.01Z"/>
    <path class="cls-2" d="M1852.8,536.02c-12.37,2.71-22.46,10.18-29.17,21.58-12.74,21.66-12,54.45,1.87,83.51,12.32,25.8,34.09,46.04,58.2,54.11,7.61,2.54,15.18,3.81,22.5,3.81s15.02-1.38,21.91-4.14c44.35-17.72,59.04-47.83,41.4-84.8-19.4-40.61-77.05-82.77-116.72-74.08h0ZM1892.78,640.84c-2.9.97-12.49,2.75-26.09-2.39-10.13-3.83-20.2-15.87-25.88-30.22-8.95-22.58-4.23-42.68,6.08-45.37,4.05-1.05,9.45-.25,9.99-.22,4.17.2,9.92,1.89,11.34,2.45,11.18,4.47,26.93,24.14,34.39,42.96,9.12,23,.16,29.49-9.82,32.79Z"/>
    <path class="cls-2" d="M2055.6,643.35c-8.57-2.56-17.48-1.59-25.08,2.71-7.38,4.18-12.62,11.05-14.77,19.32-4.44,17.15,6.02,35.31,23.3,40.44,3.15.94,6.33,1.4,9.48,1.4,5.45,0,10.8-1.39,15.61-4.12,7.38-4.18,12.62-11.05,14.77-19.32,4.44-17.15-6.02-35.31-23.3-40.44Z"/>
    <path class="cls-2" d="M1072.41,198.54c1.85,2.39,4.02,4.42,6.45,6,15.57,10.17,27.29,8.45,33-4.82,6.28-14.6,3.7-41.5-8.28-52.09-3.73-3.3-8.2-4.9-12.92-4.61-8.96.56-17.65,7.67-22.15,18.11-4,9.28-4.18,20.34-.51,29.58,1.15,2.92,2.65,5.56,4.43,7.85h-.01Z"/>
  </g>
  <text class="cls-3" transform="translate(720.35 67.85)"><tspan class="cls-1" x="0" y="0">WEBSITE CODED </tspan><tspan class="cls-4" x="638.65" y="0">B</tspan><tspan class="cls-5" x="688.16" y="0">Y</tspan></text>
</svg>