<svg width="116" height="43" viewBox="0 0 116 43" fill="none" xmlns="http://www.w3.org/2000/svg">
<rect x="1.37821" y="1.37821" width="113.244" height="40.2436" rx="20.1218" stroke="white" stroke-width="2.75641"/>
<path d="M32.6596 29L39.1457 10.3555H35.5538L30.8248 25.421H30.7473L26.0183 10.3555H22.3489L28.835 29H32.6596ZM43.4245 13.2368C44.4065 13.2368 45.1818 12.4486 45.1818 11.4925C45.1818 10.5234 44.4065 9.7482 43.4245 9.7482C42.4426 9.7482 41.6544 10.5234 41.6544 11.4925C41.6544 12.4486 42.4426 13.2368 43.4245 13.2368ZM41.8224 29H45.0396V15.3041H41.8224V29ZM54.0474 29.2197C56.0501 29.2197 57.6264 28.1989 58.3758 26.6614H58.4275V29H61.5802V10.3555H58.3629V17.604H58.2854C57.5618 16.0922 56.0113 15.0715 54.0474 15.0715C50.5976 15.0715 48.3623 17.8107 48.3623 22.1391C48.3623 26.4934 50.5976 29.2197 54.0474 29.2197ZM55.0165 17.7203C57.045 17.7203 58.3758 19.4645 58.3758 22.152C58.3758 24.8654 57.045 26.5838 55.0165 26.5838C52.9362 26.5838 51.6571 24.8783 51.6571 22.152C51.6571 19.4387 52.9491 17.7203 55.0165 17.7203ZM74.5417 24.9041C74.1928 26.0412 73.0558 26.7906 71.557 26.7906C69.4509 26.7906 68.1072 25.3176 68.1072 23.1211V22.9273H77.6814V21.8807C77.6814 17.7203 75.2523 15.0198 71.3632 15.0198C67.4094 15.0198 64.9028 17.8753 64.9028 22.2037C64.9028 26.5709 67.3836 29.2713 71.4924 29.2713C74.7355 29.2713 77.1387 27.4883 77.5522 24.9041H74.5417ZM71.3761 17.5135C73.2237 17.5135 74.4641 18.8702 74.5287 20.8083H68.133C68.2622 18.896 69.5672 17.5135 71.3761 17.5135ZM87.0122 29.2713C91.0305 29.2713 93.6405 26.5968 93.6405 22.152C93.6405 17.7203 91.0047 15.0198 87.0122 15.0198C83.0197 15.0198 80.3839 17.7332 80.3839 22.152C80.3839 26.5968 82.9938 29.2713 87.0122 29.2713ZM87.0122 26.726C84.9707 26.726 83.6528 25.0721 83.6528 22.152C83.6528 19.2449 84.9836 17.5781 87.0122 17.5781C89.0536 17.5781 90.3715 19.2449 90.3715 22.152C90.3715 25.0721 89.0536 26.726 87.0122 26.726Z" fill="white"/>
</svg>
