<svg width="117" height="43" viewBox="0 0 117 43" fill="none" xmlns="http://www.w3.org/2000/svg">
<rect x="1.37821" y="1.37821" width="114.115" height="40.2436" rx="15.1603" stroke="white" stroke-width="2.75641"/>
<path d="M31.2509 15.9211H31.3801L35.1917 29.4102H38.3314L43.3317 10.7657H39.869L36.6388 24.888H36.5354L32.7884 10.7657H29.8425L26.0955 24.888H25.9921L22.762 10.7657H19.2992L24.2995 29.4102H27.4393L31.2509 15.9211ZM50.957 29.6816C54.9753 29.6816 57.5853 27.007 57.5853 22.5623C57.5853 18.1305 54.9494 15.4301 50.957 15.4301C46.9645 15.4301 44.3287 18.1434 44.3287 22.5623C44.3287 27.007 46.9386 29.6816 50.957 29.6816ZM50.957 27.1362C48.9155 27.1362 47.5976 25.4824 47.5976 22.5623C47.5976 19.6551 48.9284 17.9884 50.957 17.9884C52.9984 17.9884 54.3163 19.6551 54.3163 22.5623C54.3163 25.4824 52.9984 27.1362 50.957 27.1362ZM60.8433 29.4102H64.0606V21.4382C64.0606 19.513 65.1588 18.3372 66.9807 18.3372C67.5233 18.3372 68.0143 18.4148 68.2856 18.5181V15.611C68.0531 15.5593 67.6913 15.4818 67.2778 15.4818C65.6627 15.4818 64.4611 16.4379 63.996 18.1047H63.9314V15.7143H60.8433V29.4102ZM74.4767 21.4253H74.438V10.7657H71.2207V29.4102H74.438V24.6554L75.5233 23.5572L79.8517 29.4102H83.5729L77.8619 21.6062L83.3403 15.7143H79.6321L74.4767 21.4253ZM85.4355 19.6422C85.4355 21.6708 86.7534 22.9628 89.3763 23.5443L91.6504 24.0482C93.0846 24.3712 93.5755 24.8363 93.5755 25.6633C93.5755 26.684 92.6065 27.33 91.0431 27.33C89.4151 27.33 88.4977 26.6581 88.2522 25.3273H85.0867C85.3451 27.9761 87.4641 29.6816 91.0431 29.6816C94.4025 29.6816 96.7799 27.9373 96.7799 25.3532C96.7799 23.3634 95.6816 22.2651 92.8391 21.632L90.565 21.1281C89.1308 20.8051 88.5623 20.2624 88.5623 19.4743C88.5623 18.4664 89.5055 17.7946 90.9268 17.7946C92.4127 17.7946 93.33 18.5827 93.4593 19.8231H96.4568C96.3793 17.2261 94.2603 15.4301 90.9268 15.4301C87.6191 15.4301 85.4355 17.1356 85.4355 19.6422Z" fill="white"/>
</svg>
