<svg width="117" height="43" viewBox="0 0 117 43" fill="none" xmlns="http://www.w3.org/2000/svg">
<rect x="1.37821" y="1.37821" width="114.115" height="40.2436" rx="20.1218" stroke="white" stroke-width="2.75641"/>
<path d="M31.2514 15.921H31.3806L35.1922 29.4102H38.3319L43.3322 10.7656H39.8694L36.6393 24.8879H36.5359L32.7889 10.7656H29.843L26.096 24.8879H25.9926L22.7625 10.7656H19.2997L24.3 29.4102H27.4398L31.2514 15.921ZM50.9574 29.6815C54.9758 29.6815 57.5858 27.0069 57.5858 22.5622C57.5858 18.1304 54.9499 15.43 50.9574 15.43C46.965 15.43 44.3291 18.1433 44.3291 22.5622C44.3291 27.0069 46.9391 29.6815 50.9574 29.6815ZM50.9574 27.1361C48.916 27.1361 47.5981 25.4823 47.5981 22.5622C47.5981 19.655 48.9289 17.9883 50.9574 17.9883C52.9989 17.9883 54.3168 19.655 54.3168 22.5622C54.3168 25.4823 52.9989 27.1361 50.9574 27.1361ZM60.8438 29.4102H64.0611V21.4381C64.0611 19.5129 65.1593 18.3371 66.9811 18.3371C67.5238 18.3371 68.0148 18.4147 68.2861 18.518V15.6109C68.0536 15.5592 67.6918 15.4817 67.2783 15.4817C65.6632 15.4817 64.4616 16.4378 63.9965 18.1046H63.9319V15.7142H60.8438V29.4102ZM74.4772 21.4252H74.4384V10.7656H71.2212V29.4102H74.4384V24.6553L75.5238 23.5571L79.8522 29.4102H83.5734L77.8624 21.6061L83.3408 15.7142H79.6326L74.4772 21.4252ZM85.436 19.6421C85.436 21.6707 86.7539 22.9627 89.3768 23.5442L91.6508 24.0481C93.085 24.3711 93.576 24.8362 93.576 25.6632C93.576 26.6839 92.607 27.3299 91.0436 27.3299C89.4156 27.3299 88.4982 26.6581 88.2527 25.3272H85.0871C85.3456 27.976 87.4645 29.6815 91.0436 29.6815C94.4029 29.6815 96.7804 27.9372 96.7804 25.3531C96.7804 23.3633 95.6821 22.265 92.8395 21.6319L90.5655 21.128C89.1313 20.805 88.5628 20.2623 88.5628 19.4742C88.5628 18.4663 89.506 17.7945 90.9273 17.7945C92.4132 17.7945 93.3305 18.5826 93.4597 19.823H96.4573C96.3798 17.226 94.2608 15.43 90.9273 15.43C87.6196 15.43 85.436 17.1355 85.436 19.6421Z" fill="white"/>
</svg>
