<svg width="104" height="43" viewBox="0 0 104 43" fill="none" xmlns="http://www.w3.org/2000/svg">
<rect x="0.75" y="0.75" width="102.5" height="41.5" rx="20.75" stroke="white" stroke-width="1.5"/>
<path d="M28.1584 14.2058H28.2876L32.5901 29H34.7867L39.8645 10.3555H37.4354L33.7013 25.576H33.598L29.3987 10.3555H27.0472L22.848 25.576H22.7446L19.0105 10.3555H16.5814L21.6593 29H23.8558L28.1584 14.2058ZM46.0535 29.2326C49.7617 29.2326 52.2683 26.558 52.2683 22.2813C52.2683 17.9916 49.7617 15.3299 46.0535 15.3299C42.3323 15.3299 39.8257 17.9916 39.8257 22.2813C39.8257 26.558 42.3323 29.2326 46.0535 29.2326ZM46.0535 27.2557C43.6761 27.2557 42.1127 25.4468 42.1127 22.2813C42.1127 19.1157 43.6761 17.3068 46.0535 17.3068C48.4309 17.3068 49.9814 19.1157 49.9814 22.2813C49.9814 25.4468 48.4309 27.2557 46.0535 27.2557ZM54.5424 29H56.7906V20.6274C56.7906 18.7281 57.9276 17.4748 59.6719 17.4748C60.2145 17.4748 60.6926 17.5394 60.8735 17.604V15.4204C60.6926 15.3945 60.3567 15.3299 59.9691 15.3299C58.3927 15.3299 57.1523 16.2731 56.713 17.759H56.6614V15.5625H54.5424V29ZM65.0727 23.9351L66.326 22.7464L71.3134 29H73.9234L67.9153 21.3639L73.7425 15.5625H71.0162L65.0727 21.5319V10.3555H62.8245V29H65.0727V23.9351ZM74.802 19.2707C74.802 21.2088 76.0294 22.3846 78.5619 22.9919L80.6938 23.5087C82.2314 23.8834 82.7611 24.439 82.7611 25.4081C82.7611 26.6226 81.637 27.3978 79.8152 27.3978C77.9934 27.3978 76.9597 26.6614 76.6884 25.1238H74.4402C74.6986 27.6433 76.6626 29.2326 79.8152 29.2326C82.8128 29.2326 85.0222 27.5787 85.0222 25.2401C85.0222 23.3149 84.0403 22.2554 81.3269 21.5965L79.195 21.0796C77.6962 20.7178 77.0114 20.0847 77.0114 19.1544C77.0114 17.9787 78.0968 17.1647 79.7377 17.1647C81.3915 17.1647 82.4252 18.0303 82.5931 19.4387H84.738C84.6475 17.0613 82.6836 15.3299 79.7377 15.3299C76.8305 15.3299 74.802 16.9709 74.802 19.2707Z" fill="white"/>
</svg>
