<svg width="1461" height="358" viewBox="0 0 1461 358" fill="none" xmlns="http://www.w3.org/2000/svg">
<path d="M221.613 197.816V175.258H133.723V204.115H184.699L184.553 207.631C183.967 237.221 161.848 257.436 129.914 257.436C91.8281 257.436 68.0977 227.699 68.0977 179.066C68.0977 131.459 90.8027 103.188 128.889 103.188C154.816 103.188 174.445 117.543 181.623 141.859H220.002C213.117 99.5254 176.789 71.1074 128.742 71.1074C67.6582 71.1074 29.4258 112.416 29.4258 179.506C29.4258 247.621 67.8047 289.516 129.475 289.516C187.336 289.516 221.613 255.092 221.613 197.816ZM303.814 74.623H266.021V211.439C266.021 257.582 299.42 289.516 352.887 289.516C406.5 289.516 439.752 257.582 439.752 211.439V74.623H402.105V208.07C402.105 236.928 384.234 256.557 352.887 256.557C321.539 256.557 303.814 236.928 303.814 208.07V74.623ZM579.375 286C624.492 286 651.885 263.148 651.885 225.941C651.885 197.963 631.816 177.309 603.105 174.525V173.354C624.785 169.838 641.631 150.062 641.631 127.357C641.631 95.2773 616.875 74.623 578.496 74.623H490.752V286H579.375ZM528.545 104.066H568.975C591.533 104.066 604.277 114.467 604.277 132.924C604.277 152.553 589.482 163.686 563.115 163.686H528.545V104.066ZM528.545 256.557V190.492H569.121C598.125 190.492 613.359 201.771 613.359 223.305C613.359 244.984 598.564 256.557 570.732 256.557H528.545ZM730.131 286V74.623H692.338V286H730.131ZM1157.75 254.066H1061.81V74.623H1024.01V286H1157.75V254.066Z" fill="white"/>
<path d="M18.3615 56C7.53743 56 0 63.4754 0 74.5C0 86.1457 7.77845 93 18.734 93C21.2538 93 23.6421 92.6673 25.4169 92.0905V88.8075C24.1242 89.3399 21.5167 89.6948 18.9531 89.6948C10.0134 89.6948 3.68107 84.2158 3.68107 74.6331C3.68107 65.5827 9.68472 59.2608 18.1643 59.2608C26.622 59.2608 32.3189 64.5623 32.3189 72.6145C32.3189 77.7164 30.6756 80.6667 28.353 80.6667C26.8631 80.6667 26.1181 79.6685 26.1181 78.1823V65.8933H22.1083V68.5552H21.8454C20.9909 66.6253 18.9531 65.4275 16.6086 65.4275C12.1826 65.4275 9.13694 69.1319 9.13694 74.5222C9.13694 80.1565 12.1826 83.9275 16.7401 83.9275C19.3037 83.9275 21.21 82.7074 22.1302 80.467H22.3932C22.7876 82.6409 24.8911 84.0384 27.5204 84.0384C32.801 84.0384 36 79.4688 36 72.437C36 62.5881 28.6817 56 18.3615 56ZM17.6385 69.1097C20.2021 69.1097 21.8235 71.2392 21.8235 74.6553C21.8235 78.0492 20.1802 80.1787 17.5946 80.1787C15.0968 80.1787 13.5849 78.0935 13.5849 74.6553C13.5849 71.1727 15.0749 69.1097 17.6385 69.1097Z" fill="white"/>
</svg>
