<svg width="157" height="43" viewBox="0 0 157 43" fill="none" xmlns="http://www.w3.org/2000/svg">
<rect x="1.37821" y="1.37821" width="154.244" height="40.2436" rx="15.1603" stroke="white" stroke-width="2.75641"/>
<path d="M21.8657 23.793C22.0207 27.204 24.8762 29.3101 29.1917 29.3101C33.6752 29.3101 36.479 27.0619 36.479 23.4958C36.479 20.7308 34.838 19.1544 30.9102 18.3404L28.8945 17.927C26.5688 17.436 25.6385 16.622 25.6385 15.3558C25.6385 13.7924 27.1115 12.8104 29.1788 12.8104C31.3107 12.8104 32.7837 13.8699 32.9387 15.6271H36.1301C36.0526 12.2936 33.3263 10.0454 29.2046 10.0454C25.1605 10.0454 22.2791 12.2677 22.2791 15.5496C22.2791 18.2758 24.0234 20.0331 27.7575 20.7954L29.7602 21.2088C32.1893 21.7127 33.1196 22.5397 33.1196 23.8834C33.1196 25.4339 31.5562 26.5451 29.308 26.5451C26.9823 26.5451 25.3026 25.5114 25.0571 23.793H21.8657ZM41.5201 13.2368C42.5021 13.2368 43.2773 12.4486 43.2773 11.4925C43.2773 10.5234 42.5021 9.7482 41.5201 9.7482C40.5381 9.7482 39.75 10.5234 39.75 11.4925C39.75 12.4486 40.5381 13.2368 41.5201 13.2368ZM39.9179 29H43.1352V15.3041H39.9179V29ZM47.9179 12.0998V15.3041H45.954V17.7849H47.9179V25.3564C47.9179 28.018 49.0808 29.0646 52.0396 29.0646C52.7244 29.0646 53.3575 29.0129 53.7064 28.9354V26.4805C53.4996 26.5192 53.0862 26.5451 52.789 26.5451C51.652 26.5451 51.1351 26.0282 51.1351 24.9041V17.7849H53.7193V15.3041H51.1351V12.0998H47.9179ZM62.9079 29.2713C66.9263 29.2713 69.5362 26.5968 69.5362 22.152C69.5362 17.7203 66.9004 15.0198 62.9079 15.0198C58.9155 15.0198 56.2796 17.7332 56.2796 22.152C56.2796 26.5968 58.8896 29.2713 62.9079 29.2713ZM62.9079 26.726C60.8665 26.726 59.5486 25.0721 59.5486 22.152C59.5486 19.2449 60.8794 17.5781 62.9079 17.5781C64.9494 17.5781 66.2673 19.2449 66.2673 22.152C66.2673 25.0721 64.9494 26.726 62.9079 26.726ZM90.4719 15.5108H90.6011L94.4127 29H97.5524L102.553 10.3555H99.09L95.8598 24.4778H95.7564L92.0094 10.3555H89.0635L85.3165 24.4778H85.2132L81.983 10.3555H78.5202L83.5206 29H86.6603L90.4719 15.5108ZM113.188 24.9041C112.84 26.0412 111.703 26.7906 110.204 26.7906C108.098 26.7906 106.754 25.3176 106.754 23.1211V22.9273H116.328V21.8807C116.328 17.7203 113.899 15.0198 110.01 15.0198C106.056 15.0198 103.55 17.8753 103.55 22.2037C103.55 26.5709 106.03 29.2713 110.139 29.2713C113.382 29.2713 115.786 27.4883 116.199 24.9041H113.188ZM110.023 17.5135C111.871 17.5135 113.111 18.8702 113.176 20.8083H106.78C106.909 18.896 108.214 17.5135 110.023 17.5135ZM127.261 29.2197C130.724 29.2197 132.907 26.5322 132.907 22.152C132.907 17.7719 130.711 15.0715 127.261 15.0715C125.323 15.0715 123.76 16.0535 122.984 17.6556H122.907V10.3555H119.69V29H122.842V26.6614H122.907C123.708 28.2506 125.246 29.2197 127.261 29.2197ZM126.266 17.7203C128.321 17.7203 129.613 19.4387 129.613 22.152C129.613 24.8783 128.334 26.5838 126.266 26.5838C124.276 26.5838 122.894 24.8395 122.894 22.152C122.894 19.4904 124.276 17.7203 126.266 17.7203Z" fill="white"/>
</svg>
